<svg xmlns="http://www.w3.org/2000/svg" viewBox="0 0 1477 770"><defs><style>.cls-1,.cls-2{fill:#5484c7;}.cls-1{opacity:0.36;}.cls-3,.cls-5{fill:#fff;}.cls-4{fill:none;}.cls-4,.cls-5{stroke:#fff;stroke-miterlimit:10;stroke-width:2px;}</style></defs><title>backgr</title><g id="Layer_2" data-name="Layer 2"><g id="Layer_1-2" data-name="Layer 1"><rect class="cls-1" width="1477" height="770"/><path class="cls-2" d="M841.85,768.15l.66-243.86a118.69,118.69,0,0,1,26.64-75.09c17.33-21.09,41.31-35.45,67.67-39.21,28.81-4.11,58.14,4.76,81.52,22.89,29.21,22.65,45.87,57.88,45.77,94.84l-.66,241Z"/><path class="cls-3" d="M991.52,494.23h.07a25.63,25.63,0,0,1-.07,51.26h-.07a25.63,25.63,0,0,1,.07-51.26m0-2a27.63,27.63,0,0,0-.07,55.26h.07a27.63,27.63,0,0,0,.08-55.26Z"/><circle class="cls-3" cx="991.52" cy="519.86" r="11.38"/><path class="cls-3" d="M919.46,494h.07a25.64,25.64,0,0,1-.07,51.27h-.07a25.64,25.64,0,0,1,.07-51.27m0-2a27.64,27.64,0,0,0-.08,55.27h.08a27.64,27.64,0,0,0,.07-55.27Z"/><circle class="cls-3" cx="919.46" cy="519.66" r="11.38"/><path class="cls-4" d="M964.16,519.51a12.86,12.86,0,0,0-9.74-3.27,12.53,12.53,0,0,0-7.6,3.77"/><path class="cls-4" d="M912.11,573.54c3.23,3.06,17.15,15.53,38.55,15.79,25.78.32,41.69-17.32,44-20"/><path class="cls-5" d="M940.53,588.08c-.39,2.92-.79,5.85-1.18,8.77l10.85.62.46-8.14"/><path class="cls-5" d="M956.08,589.64q-.18,3.39-.38,6.78L966,595c-.08-2.5-.17-5-.25-7.49"/></g></g></svg>