<svg xmlns="http://www.w3.org/2000/svg" xmlns:xlink="http://www.w3.org/1999/xlink" viewBox="0 0 932.58 830.17"><defs><style>.cls-1,.cls-13,.cls-5{fill:none;}.cls-2,.cls-3,.cls-8{fill:#5484c7;}.cls-2{opacity:0.36;}.cls-4,.cls-6{fill:#fff;}.cls-13,.cls-5,.cls-6{stroke:#fff;}.cls-12,.cls-13,.cls-5,.cls-6,.cls-8{stroke-miterlimit:10;}.cls-12,.cls-5,.cls-6{stroke-width:2px;}.cls-7{fill:#ffc881;}.cls-8{stroke:url(#Unnamed_Pattern);}.cls-12,.cls-9{fill:#35406e;}.cls-10{fill:#fdbc04;}.cls-11{fill:#f04900;}.cls-12{stroke:#653200;stroke-linecap:round;}.cls-13{stroke-width:3px;}</style><pattern id="Unnamed_Pattern" data-name="Unnamed Pattern" width="1477" height="770" patternUnits="userSpaceOnUse" viewBox="0 0 1477 770"><rect class="cls-1" width="1477" height="770"/><rect class="cls-2" width="1477" height="770"/><path class="cls-3" d="M841.85,768.15l.66-243.86a118.69,118.69,0,0,1,26.64-75.09c17.33-21.09,41.31-35.45,67.67-39.21,28.81-4.11,58.14,4.76,81.52,22.89,29.21,22.65,45.87,57.88,45.77,94.84l-.66,241Z"/><path class="cls-4" d="M991.52,494.23a25.63,25.63,0,0,0-.07,51.26h.07a25.63,25.63,0,0,0,.07-51.26h-.07m0-2h.08a27.63,27.63,0,0,1-.08,55.26h-.07a27.63,27.63,0,0,1,.07-55.26Z"/><circle class="cls-4" cx="991.52" cy="519.86" r="11.38"/><path class="cls-4" d="M919.46,494a25.64,25.64,0,0,0-.07,51.27h.07a25.64,25.64,0,0,0,.07-51.27h-.07m0-2h.07a27.64,27.64,0,0,1-.07,55.27h-.08a27.64,27.64,0,0,1,.08-55.27Z"/><circle class="cls-4" cx="919.46" cy="519.66" r="11.38"/><path class="cls-5" d="M964.16,519.51a12.86,12.86,0,0,0-9.74-3.27,12.53,12.53,0,0,0-7.6,3.77"/><path class="cls-5" d="M912.11,573.54c3.23,3.06,17.15,15.53,38.55,15.79,25.78.32,41.69-17.32,44-20"/><path class="cls-6" d="M940.53,588.08c-.39,2.92-.79,5.85-1.18,8.77l10.85.62.46-8.14"/><path class="cls-6" d="M956.08,589.64q-.18,3.39-.38,6.78L966,595c-.08-2.5-.17-5-.25-7.49"/></pattern></defs><title>main_ct_1</title><g id="Layer_2" data-name="Layer 2"><g id="Layer_1-2" data-name="Layer 1"><path class="cls-7" d="M238.86,466.68l3.64-2.3v-41l-18-.65s-.35,17.48-4.61,21.46-14.76,1.13-15.79,1.47-8.11-1.7-11.29,1.57S203.61,460,211,461.71a47.87,47.87,0,0,0,15.43.57s1.61-10.47,4.19-9.44S233.4,465,233.4,465Z"/><path class="cls-8" d="M233.81,464.8C322.16,301.66,431.09,218,459.93,185.55,507.81,131.61,573.49,96.3,645,87.14c99.34-12.71,197.09,25.42,247.69,98.38,39.33,56.72,49.41,133.41,29.18,207.55-5,18.33-23.4,81.92-94.79,147.46C727,632.45,619.79,639.5,489,673.22c-93.81,24.19-223.91,68.34-374,156C129.42,725.64,162.1,597.22,233.81,464.8Z"/><ellipse class="cls-4" cx="620.91" cy="243.88" rx="15.81" ry="13.3"/><ellipse class="cls-5" cx="620.91" cy="243.88" rx="53.95" ry="45.38"/><ellipse class="cls-4" cx="743.69" cy="322.12" rx="15.81" ry="13.3"/><ellipse class="cls-5" cx="743.69" cy="322.12" rx="53.95" ry="45.38"/><path class="cls-5" d="M665.1,270.09c8.24-4.13,18.39-4.15,26,0,9.33,5.06,13.41,15.5,9.3,25"/><path class="cls-5" d="M559.06,304.52c.73,7.21,4.76,37.48,35.35,61C631.25,393.91,677,389.73,683.7,389"/><path class="cls-6" d="M581.38,353l-13,9.39,14.88,12.52,11.17-9.39"/><path class="cls-6" d="M601.85,371.81l-9.3,7.82L609.29,389l9.3-9.39"/><path class="cls-7" d="M262.74,522.14l4.93-.16,16.71-35.91-19.5-9.76s-7.51,15.14-13.82,16.46-16.68-6.56-18-6.79-8.21-5.64-13-4.4,6.66,16.66,14.11,22a72.59,72.59,0,0,0,16.72,8.4s6-8.36,8.46-6.14-1.91,12-1.91,12Z"/><path class="cls-9" d="M366.06,339a226.37,226.37,0,0,1-12.45,39.61c-6.25,14.28-65,124.28-65,124.28s-16.85,5.51-42.37-14.41C242.5,485.57,292,375.72,292,375.72l33.1-45.59"/><path class="cls-9" d="M211.5,431.72a64.12,64.12,0,0,0,43,6c1.25-10.16,2.27-20.84,3-32q.74-11.31,1-22c11.8,5.49,38,15.47,68,8,11.4-2.84,26.65-6.62,36-21,10.83-16.65,6.16-35.71,5-40l-133.95,6.51a12,12,0,0,0-11.32,10.48Q216.86,389.71,211.5,431.72Z"/><path class="cls-10" d="M364.21,258.32l-9.38-3.57c-2.41.16-23.94,7.21-33.73,21.46A93.84,93.84,0,0,0,318,289.87c-1.24,6.14-2.3,12.31-3.09,18.42a137.73,137.73,0,0,0-1.15,20.4,59.37,59.37,0,0,0,.46,7.3,13.31,13.31,0,0,0,3.64,2.58c28.28,12.15,50.66-2.61,51.79-4.89s4.86-35.62,6.9-55.47A19.2,19.2,0,0,0,364.21,258.32Z"/><path class="cls-11" d="M341,222s-8.89,32.23,2.92,36.68,27-8.29,28.62-14.88S358.82,212.31,341,222Z"/><path class="cls-10" d="M399.44,212.36a15,15,0,0,0-17.87-8c-6.52,2.12-10.46,7.71-12.37,14-5.87-5.13-14.62-7.74-25.72-4.33,0,0-10.89,4.61-8.91,11.52s10.25,6.9,17.18,8.26,1.31,7.44,1.66,14.28,3.43,8,6.31,8.56,15.95-2.3,17.79-17.66a19.1,19.1,0,0,0,.14-2.83,36.23,36.23,0,0,0,5.41.16,20.13,20.13,0,0,0,11.52-3.18A17.46,17.46,0,0,0,399.44,212.36Z"/><path class="cls-11" d="M329.74,257.31a6.2,6.2,0,0,0,1.08-4.38,2.3,2.3,0,0,0-2.6-2,2.26,2.26,0,0,0-1.59,1l-1,1.38c-.16-1.78-.34-3.55-.59-5.32a2.31,2.31,0,0,0-4.61.16c0,.55-.14,1.13-.18,1.68a8.7,8.7,0,0,0-.4,1.82c-2.51.32-5.5,1.24-5.94,4.12V256c-1.93,0-3.82.76-3.89,3.07a9.54,9.54,0,0,0,0,1.31c-1.95.58-3.38,1.57-3.11,4.12a37.71,37.71,0,0,0,2.31,8.68,2.26,2.26,0,0,0,1.75,1.31c.27,1.25.6,2.47.94,3.69a3.46,3.46,0,0,0,4.62,1.59,3.4,3.4,0,0,0,1.18-.95,2.63,2.63,0,0,0,.69-.13,7.81,7.81,0,0,0,5.13-.23,2.54,2.54,0,0,0,.26-.49,2.28,2.28,0,0,0,.76-1.93v-1.57h0Q327.2,265.94,329.74,257.31Z"/><path class="cls-10" d="M325.78,269.28c-.74.18-11.1-9.32-18.95-6.06,0,0-29.94,50.48-2,63.83,13.82,6.63,24.57-13.81,24.57-13.81l-7.94-15.71Z"/><path class="cls-11" d="M323.31,271.33A101,101,0,0,0,310,306.24c-.25,1.45,2,2.07,2.31.62a99,99,0,0,1,13.07-34.36A1.19,1.19,0,0,0,323.31,271.33Z"/><path class="cls-11" d="M328.86,315.17c-2.3,4.49-5.25,9.21-9.85,11.51a15.09,15.09,0,0,1-16.65-2.57c-9.81-8.45-8.34-23-6.38-34.38.25-1.45-2-2.07-2.3-.62-2.31,12.75-3.48,29.33,8.56,37.87a17.31,17.31,0,0,0,16.33,2.31c5.75-2.31,9.42-7.79,12.18-13.11C331.53,315,329.51,313.86,328.86,315.17Z"/><path class="cls-12" d="M288.5,501.72l63-120a50.7,50.7,0,0,0,16-26,48.63,48.63,0,0,0,1-17"/><path class="cls-12" d="M267.5,433.72a321.49,321.49,0,0,1,18-42c4.91-9.52,10-18.18,15-26"/><path class="cls-8" d="M138.72,340.21,10.15,358A8.49,8.49,0,0,1,.5,349.56V20.63a8.49,8.49,0,0,1,12.31-7.58L141.38,77.76a8.49,8.49,0,0,1,4.67,7.58V331.8A8.49,8.49,0,0,1,138.72,340.21Z"/><path class="cls-10" d="M148.43,328.08,19.86,345.84a8.5,8.5,0,0,1-9.66-8.41V8.5A8.49,8.49,0,0,1,22.51.92L151.08,65.63a8.47,8.47,0,0,1,4.67,7.58V319.67A8.48,8.48,0,0,1,148.43,328.08Z"/><line class="cls-13" x1="24.76" y1="49.3" x2="24.76" y2="316.15"/><line class="cls-13" x1="25.36" y1="315.54" x2="143.02" y2="305.84"/><path class="cls-4" d="M57.37,299l-2.43.14a8.5,8.5,0,0,1-9-8.48v-127a8.5,8.5,0,0,1,10.4-8.28l2.43.56a8.5,8.5,0,0,1,6.58,8.28V290.53A8.49,8.49,0,0,1,57.37,299Z"/><path class="cls-4" d="M91.94,297.19h0a8.49,8.49,0,0,1-9-8.48V231a8.48,8.48,0,0,1,9.37-8.44h0A8.49,8.49,0,0,1,100,231v57.75A8.5,8.5,0,0,1,91.94,297.19Z"/></g></g></svg>