<svg xmlns="http://www.w3.org/2000/svg" viewBox="0 0 922.64 649.14"><defs><style>.cls-1,.cls-7{fill:#5484c7;}.cls-2,.cls-4{fill:#fff;}.cls-3{fill:none;}.cls-3,.cls-4{stroke:#fff;stroke-miterlimit:10;stroke-width:2px;}.cls-5{fill:#333;}.cls-6{fill:#247efd;opacity:0.1;isolation:isolate;}.cls-7{opacity:0.81;}.cls-8{fill:#e6e6e6;}.cls-9{fill:#f04900;}.cls-10{fill:#35406e;}.cls-11{fill:#fdbc04;}.cls-12{fill:#653200;}</style></defs><title>Asset 2</title><g id="Layer_2" data-name="Layer 2"><g id="Layer_1-2" data-name="Layer 1"><path class="cls-1" d="M291.64,540.76c17.28-6.38,80.3-32,116-100,52.78-100.53-2.38-201.78-6.71-209.42L277.61,115c-5.06-9-4.56-20,1.27-27.88,6.93-9.39,20.21-12.78,31.68-7.6l124.3,104L531,73.19C589.43-10,699.28-19.88,756.6,31.37,800,70.14,812.34,143.11,781.94,207.51l-61.7,108.94,165.61-1.23c23-.1,37.69,15.75,36.75,26.61-.93,10.61-17.41,23.26-39.29,20.27L696,365.36c-7.47,27.18-45.27,153.31-174.37,230.4-115.91,69.21-232.88,55.6-287,43.63-32-7.06-51.06-40.8-39.38-71.4a52.39,52.39,0,0,1,3.41-7.23C214.65,532.58,256.5,520.78,291.64,540.76Z"/><circle class="cls-2" cx="589.65" cy="114.06" r="10.77"/><circle class="cls-3" cx="589.65" cy="114.06" r="36.75"/><circle class="cls-2" cx="673.28" cy="177.42" r="10.77"/><circle class="cls-3" cx="673.28" cy="177.42" r="36.75"/><path class="cls-3" d="M619.74,135.28a16.91,16.91,0,0,1,17.74,0c6.36,4.1,9.14,12.56,6.34,20.28"/><path class="cls-3" d="M547.52,163.16c.49,5.84,3.24,30.35,24.07,49.42,25.1,23,56.26,19.58,60.83,19"/><path class="cls-4" d="M562.72,202.44l-8.87,7.6L564,220.18l7.6-7.6"/><path class="cls-4" d="M576.66,217.65,570.32,224l11.41,7.61,6.33-7.61"/><path class="cls-5" d="M307.64,602.37l2.9-1.83v-32.6l-14.31-.51s-.28,13.91-3.66,17.08-11.75.89-12.57,1.17-6.45-1.36-9,1.24,8.57,10.12,14.47,11.49a38.07,38.07,0,0,0,12.28.46L303.3,601h0Z"/><path class="cls-5" d="M268.44,627.51l2.89-1.84V593.08L257,592.57s-.27,13.9-3.66,17.07-11.74.9-12.57,1.17-6.45-1.35-9,1.25,8.58,10.11,14.48,11.49a38.29,38.29,0,0,0,12.27.46l5.53,2.12Z"/><path class="cls-6" d="M.27,369.11,0,538.15a7.64,7.64,0,0,0,11.38,6.67L260.3,405.58a16.47,16.47,0,0,0,8.48-14l4.57-178.44a10.1,10.1,0,0,0-15.26-8.93L10.08,351.9A20.18,20.18,0,0,0,.27,369.11Z"/><path class="cls-7" d="M191.14,425.88,164,465.6s-3.67,10.89,8.83,19.31S217.29,510,217.29,510l-63.61,39.75L104.92,522s-21.67-8,2.86-52.89"/><path class="cls-1" d="M8.23,372.39,8,541.43a7.64,7.64,0,0,0,11.38,6.67L268.25,408.86a16.5,16.5,0,0,0,8.49-14l4.56-178.44A10.1,10.1,0,0,0,266,207.46L18,355.18A20.15,20.15,0,0,0,8.23,372.39Z"/><polygon class="cls-2" points="20.83 368.36 20.83 510.49 265.3 376.58 270.71 221.04 20.83 368.36"/><ellipse class="cls-8" cx="220.96" cy="279.69" rx="11.3" ry="7.2" transform="translate(-108.72 415.17) rotate(-74.03)"/><path class="cls-9" d="M254.37,366.78l-8.05-6a1.57,1.57,0,0,0-.75-1.28q-11.52-8-23-16.13a1.84,1.84,0,0,0-2.57.34,1.89,1.89,0,0,0-.32.67c-.81,1.39.22,2.84,1.52,3.92s2.91,2.4,4.38,3.67a1.79,1.79,0,0,0-.48.51c-1.17,1.83-3.13,4.43-3.15,6.72s1.83,3.43,3.26,4.67v.33c-.29,2.83,1,3.67,3.19,5a1.84,1.84,0,0,0,1.48.25,31.38,31.38,0,0,0,4.89,2.6l6.78,3.45c1.72.88,3-1.19,2.27-2.58,1.36.11,1.93-1.38,1.58-2.53a1.61,1.61,0,0,0,.38-.61v-.09l2.35,1.83c1.83,1.49,4.14-1.46,2.25-2.95l-1.66-1.32,3.42,2.57a1.9,1.9,0,1,0,2.24-3.08Z"/><path class="cls-10" d="M318.42,429.82a168.74,168.74,0,0,1-5,84q-.9,36.1-1.81,72.2a27.15,27.15,0,0,1-19.85-3.61q-3.61-49.74-7.24-99.5l7.07-45.51"/><path class="cls-11" d="M308.89,378.05c-1.14,0-39.23-1-65-24.06,0,0-12.33,12.1-7.32,21.35,0,0,36.49,35.15,64.32,28"/><path class="cls-10" d="M273.59,434.57c-5.71,28.73-10.7,60.06-14.32,93.73-2.86,26.64-4.57,52-5.42,75.81a27.19,27.19,0,0,0,19.86,3.61q10.34-41.94,19.85-86.64,9.93-46.8,17.75-91.28"/><path class="cls-11" d="M313.42,367.66l-7,2.11c-1.92.13-19.05,5.73-26.84,17.07a75,75,0,0,0-2.49,10.87c-.44,2.94-1.84,11.68-2.45,14.65-2.6,12.54-10.33,14-10,22.08.14,3.05,1.44,7.45,7.22,12.64,19.65,9.91,38.54,11,48.74,1.8,3-2.69,5.38-6.37,7.22-12.63C336,408.57,319.59,378.1,313.42,367.66Z"/><path class="cls-9" d="M295.46,343.72s-7.07,25.64,2.33,29.18,21.49-6.6,22.77-11.83S309.62,336,295.46,343.72Z"/><path class="cls-9" d="M284.68,366.39a4.9,4.9,0,0,0,.86-3.48,1.84,1.84,0,0,0-2.07-1.57,1.88,1.88,0,0,0-1.27.8l-.8,1.09c-.13-1.41-.28-2.82-.48-4.23a1.83,1.83,0,1,0-3.66.13c0,.44-.11.9-.15,1.34a7.06,7.06,0,0,0-.31,1.45c-2,.25-4.38,1-4.73,3.28v.14c-1.54,0-3,.61-3.09,2.44a6,6,0,0,0,0,1c-1.56.46-2.7,1.25-2.48,3.28a30,30,0,0,0,1.84,6.91,1.81,1.81,0,0,0,1.39,1c.22,1,.47,2,.75,2.93a2.74,2.74,0,0,0,3.67,1.27,2.78,2.78,0,0,0,1-.75,2.15,2.15,0,0,0,.55-.11,6.28,6.28,0,0,0,4.07-.18,1.47,1.47,0,0,0,.21-.39,1.84,1.84,0,0,0,.61-1.54V380h0Q282.65,373.26,284.68,366.39Z"/><path class="cls-11" d="M283.33,381.33c-.58.14-8.83-7.42-15.08-4.82,0,0-23.81,40.16-1.59,50.78,11,5.28,19.55-11,19.55-11l-6.32-12.49Z"/><path class="cls-11" d="M302.59,347.8v5.42c1.1,1.09,1.66,1.64,1.8,1.8a8.3,8.3,0,0,1,1.81,3.61c.26-2.45.76-5.27,1.8-5.41.74-.1,1.45,1.16,1.81,1.8,1.42,2.52,1.63,6.35,0,7.22a2.15,2.15,0,0,1-1.81,0c.47,3.53,2.58,6.36,5.42,7.22,3.69,1.13,6.94-1.56,7.22-1.8,5.75-4.93,2.29-16.45,1.81-18.05-1.19-3.94-3.5-11.61-10.84-14.44-3.84-1.49-8.56.18-18.05,3.61-1.33.48-3.24,1.22-3.92,3-.79,2,.29,4.73,2.12,6,1.33,1,2.76,1,4.88,1A18.94,18.94,0,0,0,302.59,347.8Z"/><path class="cls-12" d="M275.51,607.72c2.18-30.18,9.64-52.11,16.25-66.78,6.79-15.09,13.42-24.14,19.85-43.32a183.86,183.86,0,0,0,9-45.13h-1.81a183.76,183.76,0,0,1-9,45.13c-6.43,19.18-13.06,28.23-19.86,43.32-6.6,14.67-14.07,36.6-16.24,66.78Z"/><path class="cls-9" d="M282.12,418.2c-1.55,3-3.52,6.18-6.62,7.72a10.13,10.13,0,0,1-11.17-1.73c-6.58-5.67-5.59-15.45-4.28-23.07.17-1-1.31-1.39-1.54-.42-1.55,8.56-2.34,19.69,5.74,25.42a11.6,11.6,0,0,0,11,1.55c3.86-1.55,6.32-5.23,8.18-8.79C283.91,418.1,282.55,417.31,282.12,418.2Z"/><path class="cls-9" d="M282.73,382.1h-1.8q-1.8,10.83-3.61,21.66h1.8Q280.93,392.93,282.73,382.1Z"/><rect class="cls-8" x="33.42" y="332.61" width="130.24" height="8.62" rx="3.03" transform="translate(-155.26 94.41) rotate(-30)"/><rect class="cls-8" x="50.51" y="335.46" width="130.24" height="8.62" rx="3.03" transform="translate(-154.39 103.33) rotate(-30)"/><rect class="cls-8" x="71.88" y="336.88" width="130.24" height="8.62" rx="3.03" transform="translate(-152.24 114.21) rotate(-30)"/><rect class="cls-8" x="66.18" y="355.4" width="130.24" height="8.62" rx="3.03" transform="translate(-162.26 113.84) rotate(-30)"/><rect class="cls-8" x="69.18" y="380.84" width="85.43" height="8.62" rx="3.03" transform="translate(-177.59 107.55) rotate(-30)"/><rect class="cls-8" x="71.22" y="402.68" width="55.06" height="8.62" rx="3.03" transform="translate(-190.27 103.9) rotate(-30)"/><rect class="cls-8" x="71.22" y="416.93" width="55.06" height="8.62" rx="3.03" transform="translate(-197.39 105.81) rotate(-30)"/><rect class="cls-8" x="71.22" y="431.17" width="55.06" height="8.62" rx="3.03" transform="translate(-204.51 107.72) rotate(-30)"/><rect class="cls-8" x="75.49" y="442.57" width="55.06" height="8.62" rx="3.03" transform="translate(-209.64 111.38) rotate(-30)"/><rect class="cls-8" x="86.89" y="448.26" width="55.06" height="8.62" rx="3.03" transform="translate(-210.96 117.84) rotate(-30)"/></g></g></svg>