<svg xmlns="http://www.w3.org/2000/svg" viewBox="0 0 663.4 409"><defs><style>.cls-1{fill:#5484c7;}.cls-2,.cls-4{fill:#fff;}.cls-3{fill:none;}.cls-3,.cls-4{stroke:#fff;stroke-miterlimit:10;stroke-width:2px;}</style></defs><title>svg_pi</title><g id="Layer_2" data-name="Layer 2"><g id="Layer_1-2" data-name="Layer 1"><path class="cls-1" d="M663.4,409H213.33c-50.45,0-99.66-16.87-138.72-48.79S9,284.13,1.9,235.5c-7.73-53.14,8.49-107.32,41.84-150.57C85.4,30.92,150.34,0,218.55,0H663.4Z"/><path class="cls-2" d="M204.4,85a49,49,0,1,1-49,49,49.05,49.05,0,0,1,49-49m0-2a51,51,0,1,0,51,51,51.06,51.06,0,0,0-51-51Z"/><circle class="cls-2" cx="204.4" cy="134" r="21"/><path class="cls-2" d="M204.4,218a49,49,0,1,1-49,49,49.05,49.05,0,0,1,49-49m0-2a51,51,0,1,0,51,51,51.06,51.06,0,0,0-51-51Z"/><circle class="cls-2" cx="204.4" cy="267" r="21"/><path class="cls-3" d="M203.9,184.5c-1,1.07-7.1,8-6,18a23.12,23.12,0,0,0,7,14"/><path class="cls-3" d="M303.88,280.3c5.61-6,28.56-31.73,28.94-71.23.47-47.58-32.18-76.86-37-81.07"/><path class="cls-4" d="M330.56,227.77l16.2,2.13,1.08-20-15-.81"/><path class="cls-4" d="M333.36,199.06l12.52.67-2.74-19-13.84.51"/></g></g></svg>