<svg xmlns="http://www.w3.org/2000/svg" viewBox="0 0 207.48 209.1"><defs><style>.cls-1{fill:#5484c7;}.cls-1,.cls-2{fill-rule:evenodd;}.cls-2{fill:#fff;}</style></defs><title>amapp</title><g id="Layer_2" data-name="Layer 2"><g id="Layer_1-2" data-name="Layer 1"><path class="cls-1" d="M103.68,0h80.79a33.88,33.88,0,0,1,10,1.28c7,2.14,10.75,7.19,12.21,14.13a41.34,41.34,0,0,1,.75,8.38q.06,28.29.08,56.58,0,51.52-.07,103c0,4.81-.26,9.67-2.64,14.05-2.63,4.86-6.24,8.7-11.71,10.39a10.47,10.47,0,0,1-3,.65c-2.34,0-4.61.59-6.94.59q-79.11,0-158.2-.06c-4.29,0-8.65-.32-12.73-2.07a10.93,10.93,0,0,1-2.34-1.18c-5.18-3.95-8.71-8.88-9.46-15.55A64.47,64.47,0,0,1,0,183Q0,102.86,0,22.68a29.75,29.75,0,0,1,1-9.22C3.57,5.55,9.13,1.23,17.37.35A55.48,55.48,0,0,1,23.14,0Q63.4,0,103.68,0Z"/><path class="cls-2" d="M104.37,133c-.59,3.61-1,6.87-2.3,9.88C96,157,85.65,165.56,70.14,167.27A37.58,37.58,0,0,1,29.78,140.4c-1.84-6.37-1.66-12.86-1-19.34a55,55,0,0,1,5.94-19.69A2.09,2.09,0,0,0,34.61,99a37.29,37.29,0,0,1-6.1-24.26,35.18,35.18,0,0,1,3.63-13.37,38.28,38.28,0,0,1,38.24-21c16.11,1.53,31,15.42,33.36,31.05.12.79.34,1.56.6,2.72.38-2.1.66-3.83,1-5.54,3-14.2,16.9-29.06,36.6-29.25,20-.18,34.76,15.48,37.55,30a52.82,52.82,0,0,1,0,18.43,65.76,65.76,0,0,1-5.4,17.64,3,3,0,0,0,.22,3.29,37.35,37.35,0,0,1,6,21.92c-.51,16.58-12.24,31.45-28.37,35.34-22.52,5.43-39.79-8-45.6-24.34a51.33,51.33,0,0,1-1.95-8.58Zm40.92-29.13a6.33,6.33,0,0,1,1.48-2.19c5.65-7.51,8.62-15.89,8-25.33a12.59,12.59,0,0,0-25.14.93c0,.56,0,1.13,0,1.69-.47,7.31-4.51,11.32-10.63,11.77-1.12.08-2.24.18-3.36.19q-11.91,0-23.83,0a34.53,34.53,0,0,0-10.21,1.4c-15.42,4.76-24.41,15.3-27.39,31-.59,3.11-1.12,6.33-.1,9.53,1.46,4.58,4.19,8,9,9.13A12.3,12.3,0,0,0,75.9,138c2.24-2.54,2.95-5.56,3.11-8.87.43-8.52,5.08-12.78,12.82-12.72,11.87.1,23.74,0,35.62,0,2.1,0,2.12,0,2.13,2.11,0,3.85-.1,7.71,0,11.56.24,6.27,5.77,11.49,12.17,11.68,6.61.19,12.49-4.7,12.92-11.08a125.81,125.81,0,0,0,0-16.59A10.25,10.25,0,0,0,148.2,105c-.94-.42-1.93-.74-2.91-1.11Zm-74.43-13c2.55,0,4.64,0,6.72,0,1,0,1.42-.42,1.41-1.44,0-4,.17-8-.08-12a12,12,0,0,0-8-11c-5-2-9.63-.85-13.52,2.86s-4.43,8.3-3.06,13.29c1.25,4.59,4.22,7.19,8.89,8A51.54,51.54,0,0,0,70.86,90.92Z"/></g></g></svg>