<svg xmlns="http://www.w3.org/2000/svg" viewBox="0 0 610.42 209.31"><defs><style>.cls-1{fill:#274a7a;}</style></defs><title>baba</title><g id="Layer_2" data-name="Layer 2"><g id="Layer_1-2" data-name="Layer 1"><path class="cls-1" d="M100.4,59.66c0,37.81-23,57.86-51,57.86C20.37,117.52,0,95,0,61.77,0,26.89,21.68,4.07,51,4.07,81,4.07,100.4,27.06,100.4,59.66ZM15.16,61.45c0,23.47,12.71,44.5,35,44.5,22.5,0,35.21-20.7,35.21-45.64,0-21.84-11.41-44.66-35-44.66C26.89,15.65,15.16,37.33,15.16,61.45Z"/><path class="cls-1" d="M125.51,0h14.34V115.73H125.51Z"/><path class="cls-1" d="M237.16,94.21c0,8.15.16,15.32.65,21.52H225.1l-.82-12.88H224a29.68,29.68,0,0,1-26.08,14.67c-12.39,0-27.22-6.85-27.22-34.56V36.84H185V80.52c0,15,4.57,25.1,17.61,25.1,9.61,0,16.3-6.68,18.9-13a20.87,20.87,0,0,0,1.31-7.33V36.84h14.34Z"/><path class="cls-1" d="M267.48,115.73c.33-5.38.65-13.37.65-20.38V0h14.18V49.55h.33C287.69,40.75,296.82,35,309.53,35c19.56,0,33.42,16.3,33.25,40.26,0,28.2-17.76,42.22-35.37,42.22-11.41,0-20.53-4.4-26.4-14.83h-.49l-.65,13ZM282.31,84.1a27.3,27.3,0,0,0,.65,5.22c2.78,9.94,11.09,16.79,21.52,16.79,15,0,24-12.23,24-30.32,0-15.81-8.15-29.34-23.47-29.34-9.78,0-18.91,6.69-21.84,17.61a27.91,27.91,0,0,0-.82,5.86Z"/><path class="cls-1" d="M411.73,115.73l-1.14-10h-.49c-4.4,6.2-12.88,11.74-24.12,11.74-16,0-24.13-11.25-24.13-22.66,0-19.07,17-29.5,47.44-29.34V63.89c0-6.52-1.8-18.25-17.93-18.25a39.26,39.26,0,0,0-20.54,5.87l-3.26-9.46c6.52-4.24,16-7,25.92-7,24.12,0,30,16.47,30,32.28v29.5a111,111,0,0,0,1.3,18.91Zm-2.12-40.26C394,75.14,376.2,77.91,376.2,93.23c0,9.29,6.19,13.69,13.53,13.69a19.63,19.63,0,0,0,19.07-13.2,15,15,0,0,0,.81-4.56Z"/><path class="cls-1" d="M453.13,115.73c.33-5.38.66-13.37.66-20.38V0H468V49.55h.32c5-8.8,14.18-14.51,26.9-14.51,19.56,0,33.41,16.3,33.25,40.26,0,28.2-17.77,42.22-35.37,42.22-11.41,0-20.54-4.4-26.41-14.83h-.49l-.65,13ZM468,84.1a26.52,26.52,0,0,0,.65,5.22c2.77,9.94,11.08,16.79,21.51,16.79,15,0,24-12.23,24-30.32,0-15.81-8.15-29.34-23.47-29.34-9.78,0-18.91,6.69-21.84,17.61a28,28,0,0,0-.81,5.86Z"/><path class="cls-1" d="M597.38,115.73l-1.14-10h-.49c-4.4,6.2-12.87,11.74-24.12,11.74-16,0-24.12-11.25-24.12-22.66,0-19.07,17-29.5,47.43-29.34V63.89c0-6.52-1.79-18.25-17.93-18.25a39.29,39.29,0,0,0-20.54,5.87l-3.26-9.46c6.52-4.24,16-7,25.92-7,24.12,0,30,16.47,30,32.28v29.5a112,112,0,0,0,1.3,18.91Zm-2.11-40.26c-15.65-.33-33.42,2.44-33.42,17.76,0,9.29,6.2,13.69,13.53,13.69a19.63,19.63,0,0,0,19.07-13.2,15,15,0,0,0,.82-4.56Z"/><path class="cls-1" d="M302.59,149c11.65,5.58,23.05,10.79,34.64,15.22a330.42,330.42,0,0,0,34.94,11.33,286.45,286.45,0,0,0,35.43,6.86l4.46.56c1.48.18,3,.41,4.45.49,3,.23,6,.44,8.93.71,1.49.17,3,.18,4.47.22l4.48.14,4.47.16c1.49.07,3,0,4.48,0,3-.06,6-.11,9-.13,1.5,0,3-.19,4.47-.28l4.47-.29,4.47-.28c1.49-.14,3-.34,4.46-.51,3-.38,5.95-.62,8.92-1s5.91-1,8.88-1.44l2.23-.34,2.2-.47,4.42-.91,4.44-.89,4.4-1.08,4.41-1.08c.74-.18,1.48-.35,2.21-.55l2.18-.64a301.31,301.31,0,0,0,34.82-11.83c11.51-4.68,22.84-10,34.32-15.9a129.2,129.2,0,0,1-13.44,14c-2.36,2.23-4.89,4.24-7.39,6.33-1.23,1.07-2.56,2-3.85,3L555,173.25a187.66,187.66,0,0,1-34.12,19.41,203.55,203.55,0,0,1-37.73,12.24c-3.25.68-6.53,1.2-9.81,1.77-1.64.28-3.28.58-4.92.82l-5,.52c-3.31.33-6.62.72-9.95.92s-6.65.21-10,.29l-2.5.06c-.83,0-1.67.05-2.5,0l-5-.21-5-.23c-1.66-.08-3.32-.15-5-.36-3.31-.35-6.62-.77-9.92-1.15-1.66-.15-3.29-.51-4.93-.8l-4.91-.9a192.36,192.36,0,0,1-38-11.52,190,190,0,0,1-34.41-19c-2.65-1.91-5.26-3.87-7.83-5.84l-3.77-3.11c-.62-.52-1.25-1-1.87-1.55l-1.81-1.64A126,126,0,0,1,302.59,149Z"/></g></g></svg>