<svg xmlns="http://www.w3.org/2000/svg" viewBox="0 0 1921 1080"><defs><style>.cls-1{fill:#fff;}.cls-2,.cls-5{fill:#e6e6e6;}.cls-2{opacity:0.48;}.cls-3{fill:none;stroke:#333;stroke-miterlimit:10;}.cls-4{opacity:0.9;}</style></defs><title>backgr dp2</title><g id="Layer_2" data-name="Layer 2"><g id="Layer_1-2" data-name="Layer 1"><rect class="cls-1" width="1921" height="1080"/><path class="cls-2" d="M1115.23,269a93.14,93.14,0,0,0,65.21-64.12C1198.36,143.62,1250.21,101.65,1299,101c37.2-.49,76.62,23,101.9,60.78,23.75,35.54,68.41,50,108.85,36.16,18.38-6.29,35.08-6.19,46.25.06,29,16.23,42.42,86,0,154,16.15-33.44,56.71-42.78,81-26,13,9,20.88,25.11,21.17,42.54.37,21.68,7.55,42.69,21.35,59.41,35.11,42.52,47,100.16,29.48,152.05-12.93,38.32-40.57,69.6-76,88.36-26.62,14.07-44.27,40.55-48.33,70.39-3,21.86-13.17,40.91-28.62,52.25-22.29,16.36-56.47,17.38-86.19,2.23a91.32,91.32,0,0,0-85.62,1.23A82.4,82.4,0,0,1,1356,804a83.35,83.35,0,0,1-44.86-6c-27.63-11.85-59.25-10.14-84.79,5.72-15.14,9.4-32.12,14.58-49.35,14.3-41.34-.67-81-32.72-94.81-79.25A91.82,91.82,0,0,0,1043.91,688c-42.66-27.54-68.75-75-66.91-125,1.26-34.2,15.47-66.4,38.81-91.16,20.37-21.61,29.61-51.48,23.82-80.61-5.89-29.63.61-60.89,19.37-85.23A104.58,104.58,0,0,1,1115.23,269Z"/><circle class="cls-3" cx="913.5" cy="462.5" r="14.5"/><circle class="cls-3" cx="979.5" cy="462.5" r="14.5"/><circle class="cls-3" cx="1040.5" cy="462.5" r="14.5"/><circle class="cls-3" cx="913.5" cy="519.5" r="14.5"/><circle class="cls-3" cx="979.5" cy="519.5" r="14.5"/><circle class="cls-3" cx="1040.5" cy="519.5" r="14.5"/><circle class="cls-3" cx="913.5" cy="575.5" r="14.5"/><circle class="cls-3" cx="979.5" cy="575.5" r="14.5"/><circle class="cls-3" cx="1040.5" cy="575.5" r="14.5"/><circle class="cls-3" cx="913.5" cy="632.5" r="14.5"/><circle class="cls-3" cx="979.5" cy="632.5" r="14.5"/><circle class="cls-3" cx="1040.5" cy="632.5" r="14.5"/><circle class="cls-3" cx="147.5" cy="269.5" r="14.5"/><circle class="cls-3" cx="147.5" cy="203.5" r="14.5"/><circle class="cls-3" cx="147.5" cy="142.5" r="14.5"/><circle class="cls-3" cx="204.5" cy="269.5" r="14.5"/><circle class="cls-3" cx="204.5" cy="203.5" r="14.5"/><circle class="cls-3" cx="204.5" cy="142.5" r="14.5"/><circle class="cls-3" cx="260.5" cy="269.5" r="14.5"/><circle class="cls-3" cx="260.5" cy="203.5" r="14.5"/><circle class="cls-3" cx="260.5" cy="142.5" r="14.5"/><circle class="cls-3" cx="317.5" cy="269.5" r="14.5"/><circle class="cls-3" cx="317.5" cy="203.5" r="14.5"/><circle class="cls-3" cx="317.5" cy="142.5" r="14.5"/><circle class="cls-3" cx="75.14" cy="1005.36" r="29.14"/><circle class="cls-3" cx="75.14" cy="872.73" r="29.14"/><circle class="cls-3" cx="75.14" cy="750.14" r="29.14"/><circle class="cls-3" cx="189.69" cy="1005.36" r="29.14"/><circle class="cls-3" cx="189.69" cy="872.73" r="29.14"/><circle class="cls-3" cx="189.69" cy="750.14" r="29.14"/><circle class="cls-3" cx="302.23" cy="1005.36" r="29.14"/><circle class="cls-3" cx="302.23" cy="872.73" r="29.14"/><circle class="cls-3" cx="302.23" cy="750.14" r="29.14"/><circle class="cls-3" cx="416.77" cy="1005.36" r="29.14"/><circle class="cls-3" cx="416.77" cy="872.73" r="29.14"/><circle class="cls-3" cx="416.77" cy="750.14" r="29.14"/><g class="cls-4"><circle class="cls-5" cx="1438.14" cy="892.36" r="29.14"/><circle class="cls-5" cx="1438.14" cy="759.73" r="29.14"/><circle class="cls-5" cx="1438.14" cy="637.14" r="29.14"/><circle class="cls-5" cx="1552.69" cy="892.36" r="29.14"/><circle class="cls-5" cx="1552.69" cy="759.73" r="29.14"/><circle class="cls-5" cx="1552.69" cy="637.14" r="29.14"/><circle class="cls-5" cx="1665.23" cy="892.36" r="29.14"/><circle class="cls-5" cx="1665.23" cy="759.73" r="29.14"/><circle class="cls-5" cx="1665.23" cy="637.14" r="29.14"/><circle class="cls-5" cx="1779.77" cy="892.36" r="29.14"/><circle class="cls-5" cx="1779.77" cy="759.73" r="29.14"/><circle class="cls-5" cx="1779.77" cy="637.14" r="29.14"/></g></g></g></svg>