<svg xmlns="http://www.w3.org/2000/svg" viewBox="0 0 1107.75 1104.75"><defs><style>.cls-1{fill:#274a7a;stroke:#000;stroke-width:0.75px;}.cls-1,.cls-2{stroke-miterlimit:10;}.cls-2{fill:none;stroke:#fff;stroke-linecap:round;}.cls-3{fill:#fdbc04;}</style></defs><title>backin_1</title><g id="Layer_2" data-name="Layer 2"><g id="Layer_1-2" data-name="Layer 1"><rect class="cls-1" x="0.38" y="0.38" width="1107" height="1104"/><ellipse class="cls-2" cx="860.61" cy="62.99" rx="11.03" ry="11"/><ellipse class="cls-2" cx="965.35" cy="62.99" rx="11.02" ry="11"/><ellipse class="cls-2" cx="1059.06" cy="62.99" rx="11.02" ry="11"/><ellipse class="cls-2" cx="1059.06" cy="117.97" rx="11.02" ry="11"/><ellipse class="cls-2" cx="965.35" cy="117.97" rx="11.02" ry="11"/><ellipse class="cls-2" cx="860.61" cy="117.97" rx="11.03" ry="11"/><ellipse class="cls-2" cx="860.61" cy="178.44" rx="11.03" ry="11"/><ellipse class="cls-2" cx="965.35" cy="178.44" rx="11.02" ry="11"/><ellipse class="cls-2" cx="1064.58" cy="178.44" rx="11.03" ry="11"/><ellipse class="cls-2" cx="1064.58" cy="233.42" rx="11.03" ry="11"/><ellipse class="cls-2" cx="965.35" cy="233.42" rx="11.02" ry="11"/><ellipse class="cls-2" cx="860.61" cy="233.42" rx="11.03" ry="11"/><ellipse class="cls-3" cx="849.35" cy="602.97" rx="6.66" ry="6.64"/><ellipse class="cls-3" cx="912.64" cy="602.97" rx="6.66" ry="6.64"/><ellipse class="cls-3" cx="969.26" cy="602.97" rx="6.66" ry="6.64"/><ellipse class="cls-3" cx="969.26" cy="636.19" rx="6.66" ry="6.64"/><ellipse class="cls-3" cx="912.64" cy="636.19" rx="6.66" ry="6.64"/><ellipse class="cls-3" cx="849.35" cy="636.19" rx="6.66" ry="6.64"/><ellipse class="cls-3" cx="849.35" cy="672.73" rx="6.66" ry="6.64"/><ellipse class="cls-3" cx="912.64" cy="672.73" rx="6.66" ry="6.64"/><ellipse class="cls-3" cx="972.59" cy="672.73" rx="6.66" ry="6.64"/><ellipse class="cls-3" cx="972.59" cy="705.95" rx="6.66" ry="6.64"/><ellipse class="cls-3" cx="912.64" cy="705.95" rx="6.66" ry="6.64"/><ellipse class="cls-3" cx="849.35" cy="705.95" rx="6.66" ry="6.64"/></g></g></svg>