<svg xmlns="http://www.w3.org/2000/svg" viewBox="0 0 520.38 463.58"><defs><style>.cls-1{fill:#fdbc04;}.cls-1,.cls-2,.cls-3,.cls-4,.cls-5,.cls-6,.cls-7{stroke:#000;stroke-miterlimit:10;}.cls-2,.cls-9{fill:#5484c7;}.cls-3{fill:#ffe500;}.cls-4,.cls-5{fill:none;}.cls-5{stroke-linecap:round;}.cls-7{fill:#fff;}.cls-8{fill:#040404;}</style></defs><title>end_img</title><g id="Layer_2" data-name="Layer 2"><g id="Layer_1-2" data-name="Layer 1"><path class="cls-1" d="M360.36,5a1.34,1.34,0,1,1,1.9-1.89,58.68,58.68,0,0,1,14.44,16c1,1.66,1.89,3.29,2.65,4.87h-9.49c-2.69,0-9.81-4.76-26.59-20.88a2.24,2.24,0,0,1,0-1.9c.56-.85,2.26-1.09,3.8,0a48.11,48.11,0,0,0,7.59,5.69c4.94,3,9.2,4.33,9.5,3.8S362.91,7.57,360.36,5Z"/><path class="cls-2" d="M400.24,119,379.35,92.38a66.39,66.39,0,0,1-5.7-11.4s-1-2.7-1.89-5.69c-1.88-6.54-4.84-26.38-7.6-53.17h15.19a178.18,178.18,0,0,0,15.19,45.57,178.36,178.36,0,0,0,19,30.39c.31.6,3.38,6.9,0,13.29A14.53,14.53,0,0,1,400.24,119Z"/><path class="cls-1" d="M410.69,93.33a23.18,23.18,0,0,1-7.6-1.9c-2.22-1-5.68-2.52-7.6-5.7-3.59-6,.63-13.66.95-14.24l-1.9-1.9a23.39,23.39,0,0,1,5.7-7.6c5.85-5.08,16.68-9,24.69-3.79,6.44,4.21,7.43,12,7.59,13.29,1.36,10.66-6.88,18.35-7.47,18.88l-.12.11Z"/><path class="cls-1" d="M409.74,170.24q4.74,16.14,9.49,32.28L459.11,193l-11.39-34.19Z"/><path class="cls-3" d="M410.55,56a.69.69,0,0,0-.29,1c1.26,1.7,3,4.08,5.17,6.89,5.05,6.64,5.12,6.51,5.7,7.6,4.08,7.76,1.9,17.09,1.9,17.09a33.57,33.57,0,0,0,0,3.8,46.14,46.14,0,0,0,1.9,9.49c1.75,5.48,11.09,28.24,24.69,58.87a35.23,35.23,0,0,0,7.59-5.69c2.2-2.18,4.49-4.44,5.7-7.6,2.37-6.19-.65-12.55-1.9-15.19-3.07-6.46-5.74-6.09-13.29-15.19-5.26-6.34-8.81-10.74-9.5-17.1-.45-4.2,1.6-10.3,1.9-11.39.84-3,1.46-4.29,1.9-5.7,1.94-6.17.83-16.32-5.7-22.78C430,53.83,419.75,52.16,410.55,56Z"/><path class="cls-1" d="M419.23,71.49a7.21,7.21,0,0,1,5.7-1.9,6.79,6.79,0,0,1,5.69,5.7c.49,3.83-3,6.65-5.69,7.59a9,9,0,0,1-5.7,0"/><path class="cls-4" d="M423,71.49a4.34,4.34,0,0,1,3.8,3.8,4.27,4.27,0,0,1-1.9,3.8"/><path class="cls-5" d="M396.44,75.29a4.35,4.35,0,0,0,1.9,1.9,4.58,4.58,0,0,0,3.8,0"/><path d="M404,65.79c-.41,1.14-1.48,2.11-1.9,1.9s-.25-1.21,0-1.9c.41-1.13,1.48-2.1,1.9-1.9S404.29,65.11,404,65.79Z"/><path class="cls-1" d="M423,88.5c0,.63,0,1.26,0,1.9a45.93,45.93,0,0,0,5.7,20.73,17.34,17.34,0,0,1-9.5,4,17.06,17.06,0,0,1-9.49-2V93.33"/><path d="M407.84,92.38a8.75,8.75,0,0,0,7.59-1.9l-5.52,11c-.07.23-.13.35-.17.34-.22,0-.22-2.55,0-7.59Z"/><path class="cls-1" d="M502.56,12.62a1.34,1.34,0,0,0-1.9-1.9,59,59,0,0,0-14.44,16c-1,1.66-1.89,3.3-2.65,4.88h9.5c2.68,0,9.81-4.76,26.58-20.89a2.24,2.24,0,0,0,0-1.9c-.56-.84-2.25-1.08-3.8,0a47,47,0,0,1-7.59,5.7c-4.94,3-9.2,4.32-9.5,3.8S500,15.17,502.56,12.62Z"/><path class="cls-2" d="M409.74,109.47a11.74,11.74,0,0,0,17.09-3.8l5.17,2.59a2.61,2.61,0,0,0,3.54-1.22c1.14-2.4,2.66-5.48,4.58-9a160.24,160.24,0,0,1,15.19-22.79c5.89-7.49,15.19-21.64,30.16-50.9l16.11,7.46c-8.15,19.69-17.78,40.63-29.18,62.43-7.95,15.2-16,29.43-24.09,42.69a2.79,2.79,0,0,0-.31,2.11q3.66,14.63,7.31,29.26l-45.57,11.39c-15.38-29.84-18.89-56.47-7.6-66.46A17.31,17.31,0,0,1,409.74,109.47Z"/><path class="cls-1" d="M453.41,337.35l13.3,15.19q-6.65,6.65-13.3,13.3l-13.29-15.2"/><path class="cls-1" d="M411.63,438V407.61l17.1-1.9V438Z"/><path class="cls-6" d="M410.91,433a64.45,64.45,0,0,1-30.77,28.38.64.64,0,0,0,.31,1.22l31-2.39,7.17-7a7.4,7.4,0,0,1,3.35,4.6,7.09,7.09,0,0,1,0,3,1.78,1.78,0,0,0,1.8,2.16l6.52-.28-.42-29.5Z"/><path class="cls-6" d="M453.41,365.84a64.3,64.3,0,0,1,4.8,41.57.64.64,0,0,0,1.17.48l16.34-26.46q-.72-4.95-1.42-9.9a7.46,7.46,0,0,1,5.7,0,7,7,0,0,1,2.47,1.77,1.77,1.77,0,0,0,2.8-.18l3.63-5.44-24.09-17Z"/><path class="cls-7" d="M457.21,242.4l-30.38,53.17q2.82,55.62,5.65,111.23a1.58,1.58,0,0,1,0,.81s-.61,2.86-26.58,3.8L383.35,309.76c-.07-.3-.14-.6-.2-.89-4.95-23-.59-57.06,39.88-104.45a155.78,155.78,0,0,1,30.38,32.28C454.75,238.61,456,240.51,457.21,242.4Z"/><path class="cls-7" d="M413.53,187.33l39.88-9.5q8.55,18,17.09,36.09c4,8.39,5.31,13.45,3.8,19-1.6,5.88-6.47,11.18-19,17.09-10.27,4.84-29.71,12-58.87,11.39a151.89,151.89,0,0,1,62.67,76l-20.89,19-81.66-83.56h0a23.67,23.67,0,0,1-3.79-17.09,22.82,22.82,0,0,1,5.69-11.39l57-38.59a3.38,3.38,0,0,0,1.4-3.53l-3.3-14.85"/><path class="cls-2" d="M10,418.06l-2.85,18L24.24,438l2.85-19.94Z"/><path class="cls-6" d="M11.45,413.55,9.2,423.93l15.51.59,2.22-11.47Z"/><path class="cls-2" d="M86,418.06l-2.85,18L100.2,438l2.85-19.94Z"/><path class="cls-6" d="M84.93,426.6a2.73,2.73,0,0,0-2,0c-3.09,1-3.78,6.5-3.93,8.65a7.11,7.11,0,0,1-.38,1.82A41.32,41.32,0,0,0,77,457h53.58a10.6,10.6,0,0,0,0-3.8c-1-5.51-6.15-7.91-13.89-13.29-11.56-8-14.54-12.75-17.86-11.4s-2.7,7-5.95,7.6c-2.09.36-4.82-1.65-6-3.8C85.63,429.86,86.49,427.38,84.93,426.6Z"/><path class="cls-7" d="M20.44,204.42q-1.08,20.67-1.9,41.78-1.32,33.74-1.9,66.46A360.88,360.88,0,0,0,7.15,420.91H29.93C39.32,372.77,51.19,323.3,66,272.78q2.81-9.55,5.69-19,4.76,38,9.5,76c-1.28,15.17-2,31.69-1.9,49.38.1,14.82.81,28.78,1.9,41.78h26.58a538.26,538.26,0,0,0,7.6-102.55A539.77,539.77,0,0,0,98.3,194.92Z"/><path class="cls-2" d="M51.34,78.49l1.38-22.2h18l1.38,23.59h0c.2,5.08.11,5.36,0,5.55-.76,1.42-4.51,2.39-20.81-2.78Z"/><path class="cls-8" d="M61.58,63.92a3.38,3.38,0,0,0-2.66,5.49l0,.06a85.1,85.1,0,0,0,7.26,7.86A3.39,3.39,0,0,0,72,74.77a36.55,36.55,0,0,0-.51-5.3c-.18-1.08-.4-2.1-.65-3.06a3.36,3.36,0,0,0-3.27-2.49Z"/><path class="cls-6" d="M50.64,79.18c5,4.52,11.39,6.22,16.66,4.17a13.47,13.47,0,0,0,5.55-4.17l9,3.47a40.58,40.58,0,0,1,2.77,4.17c8.82,15.16,4.44,29.69,6.94,52.74A212.5,212.5,0,0,1,93,163.15v1.39c0,6.79,0,18,0,37.47H59.66a185.85,185.85,0,0,1-9-122.83Z"/><path class="cls-2" d="M152.65,106.25,175.2,81a9.6,9.6,0,0,1,2.92-2.26c1.1-.53,1.86-.62,2.29-.29q1.5,1.19-2.67,9.59a10,10,0,0,0-.92,5.78,19.41,19.41,0,0,1-.58,8.22c-2.43,8.18-9.89,12.41-12.49,13.88a29.58,29.58,0,0,1-2.77,1.39Z"/><path class="cls-1" d="M86.18,87.44c-.1-.32-.59-1.69-.15-2,.83-.6,4.32,2.92,5.55,4.16C98,96,110.33,118.35,118,132.62h2.78l22.2-22.21a16.27,16.27,0,0,1,5.56-4.16,15.94,15.94,0,0,1,5.55-1.39l11.1,9.71a12.56,12.56,0,0,1,1.39,5.56c0,4.33-2.44,7.53-4.17,9.71-9.65,12.2-12.49,15.27-12.49,15.27-5.28,5.71-12.69,13.78-22.2,20.81a14.67,14.67,0,0,1-5.55,2.78c-6.92,1.64-13.36-2.84-15.27-4.16a31.66,31.66,0,0,1-6.94-6.94C94,149.12,88.49,94.31,86.18,87.44Z"/><path class="cls-1" d="M79.09,81.27a22.71,22.71,0,0,1,4.17,6.94,22.07,22.07,0,0,1,1.38,6.93c.33,7,2.59,55.07,5.56,120.75h11.1a39.66,39.66,0,0,0,2.77-6.94,38.93,38.93,0,0,0,1.39-6.94c-.17-9.46-.53-23.35-1.39-40.25-.45-8.92-.74-14.57-1.38-22.2-3.55-41.94-9.89-50.1-15.27-54.13A26.56,26.56,0,0,0,79.09,81.27Z"/><path class="cls-2" d="M47.48,47.51A49.8,49.8,0,0,0,49.64,59l3.61,5.29a14,14,0,0,0,3,2,16.34,16.34,0,0,0,14.86-.55C80.7,59.89,78.53,43,74.49,37.35A15.93,15.93,0,0,0,73.35,36,18.54,18.54,0,0,0,61.8,31,19.67,19.67,0,0,0,48,36,50.09,50.09,0,0,0,47.48,47.51Z"/><path class="cls-8" d="M54.09,40.1v-.83a1.67,1.67,0,0,1,1.67-1.67H73a6.4,6.4,0,0,0,6.77-2.83,6.26,6.26,0,0,0,0-5.55,7.72,7.72,0,0,0-6.94-4.16,10.16,10.16,0,0,0-6.94-5.55A9.71,9.71,0,0,0,59,20.9,9.79,9.79,0,0,0,43.7,27.83a8.18,8.18,0,0,0-6.94,13.88,10.34,10.34,0,0,0-4.16,9.72c.81,4.75,5.5,8.52,11.1,8.32a5.33,5.33,0,0,0,1.39,5.56,5.42,5.42,0,0,0,6.94,0,3.61,3.61,0,0,0,0-2.78c-.35-.69-.88-.91-1.39-1.39-1.27-1.21-1.3-3-1.39-4.16-.17-2.19-.94-5.84-2.65-11.89a15.66,15.66,0,0,0,1.27,2.17,14.58,14.58,0,0,0,1.23,1.57,41.26,41.26,0,0,1,2.49-5A39.74,39.74,0,0,1,54.09,40.1Z"/><path class="cls-2" d="M48.56,46.57c-1.3-1.75-2.34-1.83-2.73-1.81-2.2.11-4.67,4.39-3.3,7.7,1.08,2.61,4.36,4.18,7.71,3.31"/><path class="cls-5" d="M45.83,47a2.91,2.91,0,0,0-2.2,2.2,3,3,0,0,0,2.2,3.3"/><circle cx="63.83" cy="47.26" r="1.39"/><circle cx="72.85" cy="46.57" r="1.39"/><path class="cls-5" d="M69.38,45.18l1.29,9a.62.62,0,0,1-.61.7H68"/><path class="cls-5" d="M66.6,56.29a6.65,6.65,0,0,0,2.78,0,6.39,6.39,0,0,0,2.77-1.39"/><path class="cls-1" d="M51.34,78.49A39.36,39.36,0,0,1,65.21,111.8c-.69,14.51-.94,53-1.38,105.47l-44.41,1.39A18.37,18.37,0,0,1,18,215.89,22.74,22.74,0,0,1,16.64,209c-.21-7.42,8.31-72.09,22.21-106.87q5.53-13.86,5.55-13.87c.8-1.09,3.41-4.29,2.77-6.94a2.1,2.1,0,0,1,0-1.39C47.7,78.72,49.71,78.5,51.34,78.49Z"/><path class="cls-2" d="M54.11,113.19a125.94,125.94,0,0,0,1.39-18V93.76l-2-3a2.84,2.84,0,0,1-.1-3,4.88,4.88,0,0,1,.71-.91,5.9,5.9,0,0,1,2.78-1.39c2.5-.52,7.75,3.49,13.22,10.28a2.8,2.8,0,0,1,.63,1.86,51.33,51.33,0,0,1-1.36,10.07A50.8,50.8,0,0,1,66.6,116"/><path class="cls-1" d="M50,78.49a40.24,40.24,0,0,0-19.43,8.33c-2,1.64-8.43,7.25-15.27,30.53-1.79,6.1-7.68,27.25-8.32,58.29-.1,4.61-.06,8.44,0,11.1.32,1.31,2.71,10.41,9.71,12.49,2.86.85,6.94.67,13.88-4.16,7.93-5.53,17.45-15.65,27.76-44.41A256.87,256.87,0,0,0,68,116L44.4,104.86,29.13,143.72"/><path class="cls-6" d="M72.66,252.84a370.2,370.2,0,0,1,18,76.91,370.41,370.41,0,0,1,0,91.16l-8.54-1c-1.38-10.86-2.4-22.6-2.85-35.13a391,391,0,0,1,1.9-55.08q-3-24.39-5.7-49.37Q74,266.53,72.66,252.84Z"/><path class="cls-6" d="M9,426.6a2.73,2.73,0,0,0-2,0c-3.09,1-3.78,6.5-3.93,8.65a7.11,7.11,0,0,1-.38,1.82A41.32,41.32,0,0,0,1,457H54.61a10.6,10.6,0,0,0,0-3.8c-1-5.51-6.15-7.91-13.89-13.29-11.56-8-14.54-12.75-17.86-11.4s-2.7,7-5.95,7.6c-2.09.36-4.82-1.65-5.95-3.8C9.67,429.86,10.53,427.38,9,426.6Z"/><path class="cls-2" d="M325.88,131.7a74.67,74.67,0,0,0,14.56-32.23,71.88,71.88,0,0,0,1-8.32c.25-1.44,1.31-2.23,2.08-2.08s1,.9,1,1l1.65,4.12a.72.72,0,0,0,1.2.22L356,84.91a2.18,2.18,0,0,1,3.12,0,2,2,0,0,1,0,2.08l-2.08,4.16c1.56,1.86,3.11,3.73,4.66,5.59a2.33,2.33,0,0,1,.54,1.49v2.28a2.68,2.68,0,0,1,2.08,1,2.55,2.55,0,0,1,0,2.08c-1.22,3.56-10.05,11.62-14.55,16.63A61.43,61.43,0,0,0,338.36,139Z"/><path class="cls-2" d="M268.5,415.68q.21,9.13.4,18.26l17.16-1.16-.73-20.13Z"/><path class="cls-6" d="M269.14,422.81a2.7,2.7,0,0,0-2,0c-3.09,1-3.77,6.49-3.93,8.64a7,7,0,0,1-.38,1.82,40.92,40.92,0,0,0-1.64,6.63,41.52,41.52,0,0,0,0,13.29h53.58a10.84,10.84,0,0,0,0-3.8c-1-5.51-6.15-7.91-13.89-13.29-11.57-8.05-14.55-12.75-17.86-11.4s-2.71,7-6,7.6c-2.09.37-4.82-1.65-5.95-3.8C269.84,426.06,270.69,423.58,269.14,422.81Z"/><path class="cls-2" d="M219.13,423.28l.39,18.26,17.16-1.16L236,420.25Z"/><path class="cls-6" d="M219.76,430.4a2.68,2.68,0,0,0-2,0c-3.09,1-3.78,6.5-3.93,8.65a7.2,7.2,0,0,1-.38,1.82,41.32,41.32,0,0,0-1.65,19.92H265.4a10.61,10.61,0,0,0,0-3.8c-1-5.51-6.15-7.91-13.89-13.3C240,435.65,237,431,233.65,432.3s-2.7,7-6,7.6c-2.09.36-4.82-1.65-5.95-3.8C220.46,433.66,221.32,431.18,219.76,430.4Z"/><path class="cls-1" d="M216,198.72a455.91,455.91,0,0,0-7.6,49.38c-.81,8.21-1,12.21-1.9,28.48-3.15,55.43-4.29,63-3.8,83.56.33,13.54,1.23,27.23,5.7,43.68a160.63,160.63,0,0,0,5.7,17.09q.95,3.79,1.9,7.59l24.68-1.9,1.44-6.88c.56-1.39,1.42-3.63,2.36-6.41,5.53-16.38,7.2-32.86,3.8-77.86-1.74-23.06-3.25-32.91-1.9-51.27.53-7.22,1.31-13.14,1.9-17.09,11.35,31.37,11.59,55.53,9.5,72.16-2.23,17.63-9.14,43.2,3.79,68.36,1.26,2.45,2.45,4.39,3.25,5.64l.55,5.76a18.32,18.32,0,0,0,24.69-1.9l.87-4.51a401.83,401.83,0,0,0,6.72-63.86,411.86,411.86,0,0,0-24.68-150"/><path class="cls-2" d="M240.63,58.92l-3.12,35.35c1.06.86,10.41,8.27,21.84,5.2a23.39,23.39,0,0,0,11.43-7.28c-1.94-.23-4-.56-6.24-1-1.46-.32-2.85-.67-4.15-1V76.59c.6-9.24-4.05-16.87-10.4-18.71A13.61,13.61,0,0,0,240.63,58.92Z"/><path class="cls-2" d="M274.94,37.09A48.33,48.33,0,0,1,279.1,50.6a39.09,39.09,0,0,1,0,13.52c-.64,3.47-1.33,7-4.16,10.39A11.69,11.69,0,0,1,266,78.67h-2.35A14.6,14.6,0,0,1,251.27,72l-.08-.14A17.16,17.16,0,0,1,249,60c-6.16-7.05-6.63-16.87-2.08-22.87C252.62,29.51,266.23,28.23,274.94,37.09Z"/><path class="cls-4" d="M273.9,50.6c.35,3.47.69,6.93,1,10.4h-3.12"/><circle class="cls-6" cx="267.66" cy="52.68" r="1.04"/><circle class="cls-6" cx="277.02" cy="52.68" r="1.04"/><path d="M252.07,50.6a15.29,15.29,0,0,0,2.08-5.2,14.54,14.54,0,0,0,0-5.19h31.19a2.76,2.76,0,0,0,2.08-2.08A2.83,2.83,0,0,0,285.34,35a63,63,0,0,0-16.64-6.24c-8.16-1.79-16.5-3.62-22.87,1a17.85,17.85,0,0,0-6.24,9.36q.53,12.46,1,25C241.74,63,248.64,56.32,252.07,50.6Z"/><path class="cls-9" d="M251.64,49.6c-.24-.57-2.51-5.73-6.91-5.76A6.82,6.82,0,0,0,239,47.3c-1.57,2.84-.73,7.1,2.39,10.61A6.25,6.25,0,0,0,246.05,60h0a6.32,6.32,0,0,0,6.33-5.85A9.86,9.86,0,0,0,251.64,49.6Z"/><path class="cls-6" d="M270.31,63.08a.32.32,0,0,0-.26.51,3.57,3.57,0,0,0,3.85,1.57,3.31,3.31,0,0,0,1.86-1.61.32.32,0,0,0-.28-.47Z"/><path class="cls-7" d="M237.51,89.07c.35.46,6.32,8.21,15.6,7.28a17,17,0,0,0,10.39-5.2L277,93.23a19.34,19.34,0,0,1,6.24,4.16,19.56,19.56,0,0,1,3.12,4.16c2.35,4.15,10,20.86,19.75,43.66l20.79-23.91,16.64,12.48a101.49,101.49,0,0,1-18.72,37.42,99,99,0,0,1-15.59,15.6,16.29,16.29,0,0,1-8.32,2.08c-5.27-.17-8.89-3.09-11.43-5.2-7-5.83-7.34-12.24-11.44-20.79-.38-.8-8.05-16.34-22.87-26-7.34-4.77-10.54-4.27-23.92-9.35A192.78,192.78,0,0,1,201.12,113a26.06,26.06,0,0,1,18.72-23.91Z"/><path class="cls-7" d="M273.9,119.3a283.59,283.59,0,0,1,4.16,31.19,284.32,284.32,0,0,1,0,43.66l-53-1q-6.66-73.86-7.28-73.81a13.58,13.58,0,0,0,0,3.12"/><path class="cls-2" d="M274,185.06c4.63,2.63,8.11,4.47,10.9,5.86a14.72,14.72,0,0,1,5.8,4.52,8,8,0,0,1,1.6,3.2c.92,4.68-4.05,10.19-6.39,9.59-.78-.21-.63-.93-2.2-2.68a13.71,13.71,0,0,0-4.31-3.23,12.32,12.32,0,0,0-5.4-1.08"/><path class="cls-7" d="M201.12,110.9q.52,36.39,1,72.78a23.43,23.43,0,0,0,7.28,10.4,22.26,22.26,0,0,0,5.2,3.11q15,1.59,30.15,3.12,15.65,1.59,31.19,3.12.52-10.4,1-20.79a86.06,86.06,0,0,0-48.86-9.36,102.23,102.23,0,0,0,6.23-32.23,100.58,100.58,0,0,0-1-17.67"/></g></g></svg>