<svg xmlns="http://www.w3.org/2000/svg" xmlns:xlink="http://www.w3.org/1999/xlink" viewBox="0 0 180.71 268.29"><defs><style>.cls-1{fill:#5484c7;}.cls-2{clip-path:url(#clip-path);}</style><clipPath id="clip-path"><path class="cls-1" d="M96.73,233.22v4.31c-2.28-.23-7.4-.78-13.67-1.81v-2.28c1.82.12,3.69.18,5.58.18a79.68,79.68,0,0,0,8.09-.4m-1.32-31.68c.44-.06.87-.12,1.32-.16v4.43c-4.13-.16-8.79-.46-13.67-1v-2.61c1,.07,2,.1,2.92.1a67.89,67.89,0,0,0,9.45-.75M83.08,175.59v-4.73H96.73v5.41c-3.86-.09-8.53-.27-13.67-.68M96.73,111.1v30.77H83.06v-30.4a18.56,18.56,0,0,0,6.31,1.08,19.58,19.58,0,0,0,7.36-1.45m-17.45-5c-18-14.8,6.35-42.8,17.45-58.66C85.19,88.58,111.37,74.76,106,96.61a17.27,17.27,0,0,1-16.67,13.13,15.68,15.68,0,0,1-10.08-3.64M0,90a89.71,89.71,0,0,0,19.94,56.52A102.19,102.19,0,0,1,31.3,164c30.21,15.68,73.9,13.71,75.71,13.58h0a10.84,10.84,0,1,1,0,21.68c-18.31,0-17.76,6.32-57.66-5.91a61.86,61.86,0,0,1-8.78-3.47c16.11,20,70.49,17.43,70.49,17.43a10.84,10.84,0,0,1,.51,21.68h-.51c-29.67,9.1-59.73-3.49-67.27-7,.06.33.11.66.17,1,13,12.92,53.9,16.15,53.9,16.15a10.84,10.84,0,0,1,0,21.67c-7.65.82-17.26.85-26.45-1.62q2.06,1.77,4,3.54a21.63,21.63,0,0,0,29.1,0,84.24,84.24,0,0,1,10.87-8.7,46.7,46.7,0,0,0,14.91-15.65c0-8-.13-24.6.06-41.67.25-23.88-17.36-27.17-17.36-27.17H74A21.85,21.85,0,0,1,52.18,147.6v-4.32h60.88s27.5,0,41.77,10.63c1.81-2.75,3.76-5.43,5.82-8A89.82,89.82,0,0,0,180,87.14C178.55,40.46,140.91,2.21,94.23.1,92.83,0,91.42,0,90,0A90,90,0,0,0,0,90H0"/></clipPath></defs><title>gh</title><g id="Layer_2" data-name="Layer 2"><g id="Layer_1-2" data-name="Layer 1"><g id="Layer_1-2-2" data-name="Layer 1-2"><path class="cls-1" d="M96.73,233.22v4.31c-2.28-.23-7.4-.78-13.67-1.81v-2.28c1.82.12,3.69.18,5.58.18a79.68,79.68,0,0,0,8.09-.4m-1.32-31.68c.44-.06.87-.12,1.32-.16v4.43c-4.13-.16-8.79-.46-13.67-1v-2.61c1,.07,2,.1,2.92.1a67.89,67.89,0,0,0,9.45-.75M83.08,175.59v-4.73H96.73v5.41c-3.86-.09-8.53-.27-13.67-.68M96.73,111.1v30.77H83.06v-30.4a18.56,18.56,0,0,0,6.31,1.08,19.58,19.58,0,0,0,7.36-1.45m-17.45-5c-18-14.8,6.35-42.8,17.45-58.66C85.19,88.58,111.37,74.76,106,96.61a17.27,17.27,0,0,1-16.67,13.13,15.68,15.68,0,0,1-10.08-3.64M0,90a89.71,89.71,0,0,0,19.94,56.52A102.19,102.19,0,0,1,31.3,164c30.21,15.68,73.9,13.71,75.71,13.58h0a10.84,10.84,0,1,1,0,21.68c-18.31,0-17.76,6.32-57.66-5.91a61.86,61.86,0,0,1-8.78-3.47c16.11,20,70.49,17.43,70.49,17.43a10.84,10.84,0,0,1,.51,21.68h-.51c-29.67,9.1-59.73-3.49-67.27-7,.06.33.11.66.17,1,13,12.92,53.9,16.15,53.9,16.15a10.84,10.84,0,0,1,0,21.67c-7.65.82-17.26.85-26.45-1.62q2.06,1.77,4,3.54a21.63,21.63,0,0,0,29.1,0,84.24,84.24,0,0,1,10.87-8.7,46.7,46.7,0,0,0,14.91-15.65c0-8-.13-24.6.06-41.67.25-23.88-17.36-27.17-17.36-27.17H74A21.85,21.85,0,0,1,52.18,147.6v-4.32h60.88s27.5,0,41.77,10.63c1.81-2.75,3.76-5.43,5.82-8A89.82,89.82,0,0,0,180,87.14C178.55,40.46,140.91,2.21,94.23.1,92.83,0,91.42,0,90,0A90,90,0,0,0,0,90H0"/><g class="cls-2"><rect class="cls-1" width="180.71" height="268.29"/></g></g></g></g></svg>