<svg xmlns="http://www.w3.org/2000/svg" viewBox="0 0 168.75 141.75"><defs><style>.cls-1{fill:#fff;}.cls-1,.cls-2,.cls-3,.cls-4,.cls-5{stroke:#000;stroke-miterlimit:10;stroke-width:0.75px;}.cls-2{fill:#5484c7;}.cls-3{fill:none;}.cls-4{fill:#fdbc04;}.cls-5{fill:#e6e6e6;}</style></defs><title>image 6i</title><g id="Layer_2" data-name="Layer 2"><g id="Layer_1-2" data-name="Layer 1"><rect class="cls-1" x="0.38" y="0.38" width="168" height="126" rx="7.84"/><path class="cls-2" d="M20.38,116.38v-19a3.69,3.69,0,0,1,4-3,3.66,3.66,0,0,1,3,3v6h4a3.15,3.15,0,0,1,2,2,2.58,2.58,0,0,1,0,1h3a3.31,3.31,0,0,1,3,2,3.13,3.13,0,0,1,0,2h3a3.67,3.67,0,0,1,2,1,4.36,4.36,0,0,1,1,3c.06,2.3.11,6.52,0,12l-6,15h-17l-13-26c-.05-.37-.38-3.22,1-4,1.62-.94,4.58,1.64,5,2,2.25,2,2.91,4.17,4,4C19.85,117.3,20.18,116.8,20.38,116.38Z"/><path class="cls-3" d="M27.38,105.38v10"/><path class="cls-3" d="M33.38,117.38v-9"/><path class="cls-3" d="M39.38,111.38v6"/><rect class="cls-4" x="13.38" y="79.37" width="24" height="6" rx="3"/><rect class="cls-5" x="13.38" y="43.38" width="38" height="7" rx="3.5"/><rect class="cls-5" x="13.38" y="56.38" width="28" height="4" rx="2"/><rect class="cls-5" x="13.38" y="65.38" width="17" height="4" rx="2"/><rect class="cls-5" x="39.38" y="64.38" width="14" height="5" rx="2.5"/><rect class="cls-4" x="9.38" y="6.38" width="28" height="7" rx="3.5"/><rect class="cls-5" x="87.38" y="8.37" width="10" height="1" rx="0.5"/><rect class="cls-5" x="103.38" y="8.37" width="10" height="1" rx="0.5"/><rect class="cls-5" x="123.38" y="8.37" width="10" height="1" rx="0.5"/><rect class="cls-5" x="141.38" y="8.37" width="10" height="1" rx="0.5"/><rect class="cls-4" x="13.38" y="29.37" width="17" height="9"/><rect class="cls-4" x="79.38" y="17.37" width="80" height="101"/></g></g></svg>