<svg xmlns="http://www.w3.org/2000/svg" viewBox="0 0 168.1 145.84"><defs><style>.cls-1{fill:#999;}.cls-1,.cls-2,.cls-4,.cls-5,.cls-6,.cls-7{stroke:#000;stroke-width:0.75px;}.cls-1,.cls-2,.cls-3,.cls-4,.cls-5,.cls-6,.cls-7{stroke-miterlimit:10;}.cls-2{fill:#5484c7;}.cls-3,.cls-5,.cls-6{fill:none;}.cls-3{stroke:#fff;}.cls-3,.cls-6{stroke-linecap:round;}.cls-7{fill:#fdbc04;}</style></defs><title>image 7i_1</title><g id="Layer_2" data-name="Layer 2"><g id="Layer_1-2" data-name="Layer 1"><path class="cls-1" d="M116.11,68.46h-7a11.42,11.42,0,0,0-5,3,12.55,12.55,0,0,0-3,7c-.8,5.54-2,18.63-3,36a85.57,85.57,0,0,0-33,15c-2.17,1.64-4.16,3.32-6,5q2,4.5,4,9l40-1a22.61,22.61,0,0,0,12-6c9-8.82,6.22-22,6-23"/><path class="cls-1" d="M107.11,77.46a88,88,0,0,0-5,30,12.15,12.15,0,0,0,2,5,12,12,0,0,0,3,3q1,12.51,2,25a71.74,71.74,0,0,0,27,5,70.41,70.41,0,0,0,16-2,148.21,148.21,0,0,0,4-42,144,144,0,0,0-2-18"/><path class="cls-2" d="M124.07,134.51a1.93,1.93,0,0,1-2.12.42,21.07,21.07,0,0,0-11.84-1.47c-1.06.19-10.62,2-12,8a7.16,7.16,0,0,0,0,3c15,.73,26.17.38,30.18-.55.92-.21,1.82-.45,1.82-.45a68.49,68.49,0,0,0,9-3l-9-12Z"/><path d="M124.11,69.46c4.18-.32,5.31,1.91,10,3,.74.18,9,2,12-2a6.2,6.2,0,0,0,1-5,6,6,0,0,0-3-4,5.87,5.87,0,0,0-4,0c-8.1,2.43-18-3.13-21,1-1.49,2.08-.73,5.87,1,7C121.18,70.16,122.24,69.61,124.11,69.46Z"/><path d="M121.11,63.46a9.65,9.65,0,0,0,3-2,10.44,10.44,0,0,0,3-6l-6,1Z"/><path class="cls-1" d="M115.11,68.46h30.82a14.64,14.64,0,0,1,13.88,10,181.16,181.16,0,0,1,5.3,19c3.17,14.33,2.94,21.82,2,25-5.12,17.45-36,21.63-39,22l-4-10a60.72,60.72,0,0,1,20-19,58.85,58.85,0,0,1,6-3"/><path class="cls-2" d="M121.11,56V68.58a1.42,1.42,0,0,1-.79,1.28h0a1.44,1.44,0,0,0-.65,1.92,15,15,0,0,0,3.44,4.68c5.13,4.65,14.52,6.29,18,2,.37-.45,1.91-2.49,1.24-6.79a1.44,1.44,0,0,0-1.3-1.22,6.5,6.5,0,0,1-2.94-1,6.69,6.69,0,0,1-1.79-1.69,1.55,1.55,0,0,1-.26-.62l-3.45-21.59a1.44,1.44,0,0,0-2.52-.71l-8.64,10.21A1.44,1.44,0,0,0,121.11,56Z"/><path class="cls-1" d="M130.11,83.46c-1.35-1.4,4.18-7.93,7-16a18.53,18.53,0,0,1,2-4c1-1.56,2.32-3.46,4-4,3.1-1,8.26,2.4,9,6C153.83,73.81,132.37,85.81,130.11,83.46Z"/><path class="cls-1" d="M127.11,80.46c-6.38-8.68-6.48-20-9-20-2,0-5.68,7.46-3,14,3,7.4,12.27,9.05,13,8C128.38,82.09,127.67,81.22,127.11,80.46Z"/><path class="cls-3" d="M127.11,81.46a9.31,9.31,0,0,1,3,5,8.32,8.32,0,0,1,0,3c-.25,2.07.1,5.26,3,10"/><path class="cls-3" d="M132.11,82.46a5.4,5.4,0,0,0-1,3c0,3.23,3.63,4.55,4,8a6.38,6.38,0,0,1-1,4"/><path class="cls-2" d="M106.61,31c-1.74,3.06-1.65,6.33-1.5,11.5.11,3.49.25,7,2.5,10.5a13,13,0,0,0,4.5,4.5,13.84,13.84,0,0,0,13,0c6.5-3.45,7.53-11.35,8-15s1.64-12.6-4-17C122.58,20.37,110.53,24.12,106.61,31Z"/><circle class="cls-4" cx="116.11" cy="40.46" r="1"/><circle class="cls-4" cx="108.11" cy="41.46" r="1"/><path class="cls-5" d="M111.11,38.46v7h3"/><circle class="cls-4" cx="113.11" cy="48.46" r="1"/><path d="M106.94,31.46H120.3a10.19,10.19,0,0,1,8.79,5l0,0a36.25,36.25,0,0,1,4,12h0c2.9-7.43,3.6-9.32,4-12a21,21,0,0,0,0-8c-.85-4-3.41-9.18-7-11-5.77-2.91-16.57,1.61-23.58,13.29A.47.47,0,0,0,106.94,31.46Z"/><path class="cls-2" d="M129.11,36.46a6,6,0,0,1,7-2c2.66,1.27,3,4.59,3,5a6.49,6.49,0,0,1-1,4,7.36,7.36,0,0,1-7,3"/><path class="cls-6" d="M133.11,36.46a3.88,3.88,0,0,1,2,1,4.44,4.44,0,0,1,1,4"/><path d="M123.11,19.46a5.23,5.23,0,0,1-7-7c-2.38-2-2.57-5.27-1-7a4.74,4.74,0,0,1,5-1,4.37,4.37,0,0,1,2-4,4.62,4.62,0,0,1,6,2,3.25,3.25,0,0,1,4,0,3.14,3.14,0,0,1,1,3,5.71,5.71,0,0,1,3,4,5.44,5.44,0,0,1-1,4c1.73,2.59,1.56,5.56,0,7a4.22,4.22,0,0,1-3,1,5.09,5.09,0,0,1-6,2A5,5,0,0,1,123.11,19.46Z"/><path class="cls-7" d="M1.9,100.46h57a1.54,1.54,0,0,1,1.48,1.15l10.23,40a1.52,1.52,0,0,1-1.45,1.89l-60.76.95a1.51,1.51,0,0,1-1.52-1.28Q3.66,122.7.39,102.22A1.53,1.53,0,0,1,1.9,100.46Z"/></g></g></svg>