<svg xmlns="http://www.w3.org/2000/svg" xmlns:xlink="http://www.w3.org/1999/xlink" viewBox="0 0 236.54 235.31"><defs><style>.cls-1{fill:url(#linear-gradient);}.cls-2{fill:#5484c7;}</style><linearGradient id="linear-gradient" x1="-1009.71" y1="1040.97" x2="-1009.64" y2="1040.9" gradientTransform="matrix(1849.27, 0, 0, -1853.39, 1867242.43, 1929342.44)" gradientUnits="userSpaceOnUse"><stop offset="0" stop-color="#387eb8"/><stop offset="1" stop-color="#366994"/></linearGradient></defs><title>pyth</title><g id="Layer_2" data-name="Layer 2"><g id="Layer_1-2" data-name="Layer 1"><path class="cls-1" d="M117.42,0c-60,0-56.3,26-56.3,26l.07,27h57.3v8.1H38.43S0,56.76,0,117.35s33.54,58.44,33.54,58.44h20V147.68s-1.07-33.54,33-33.54h56.83s31.94.51,31.94-30.86V31.4S180.18,0,117.42,0ZM85.82,18.14A10.3,10.3,0,0,1,96.13,28.43v0A10.29,10.29,0,0,1,85.84,38.76h0A10.3,10.3,0,0,1,75.51,28.47v0A10.3,10.3,0,0,1,85.8,18.14Z"/><path class="cls-2" d="M119.12,235.31c60,0,56.3-26,56.3-26l-.06-27H118.05v-8.1h80.07s38.42,4.36,38.42-56.23S203,59.52,203,59.52H183V87.63s1.08,33.54-33,33.54H93.15S61.22,120.66,61.22,152v51.88s-4.85,31.39,57.9,31.39Zm31.6-18.14a10.3,10.3,0,0,1-10.31-10.29v0a10.3,10.3,0,0,1,10.29-10.31h0A10.3,10.3,0,0,1,161,206.84v0a10.29,10.29,0,0,1-10.29,10.31Z"/></g></g></svg>