<svg xmlns="http://www.w3.org/2000/svg" viewBox="0 0 244.71 217.92"><defs><style>.cls-1{fill:#5484c7;}</style></defs><title>react</title><g id="Layer_2" data-name="Layer 2"><g id="Layer_1-2" data-name="Layer 1"><path class="cls-1" d="M244.71,109c0-16.21-20.3-31.58-51.43-41.1,7.19-31.73,4-57-10.07-65A21.9,21.9,0,0,0,172,.05V11.17a11.5,11.5,0,0,1,5.68,1.3c6.79,3.89,9.73,18.7,7.43,37.76-.55,4.69-1.44,9.63-2.54,14.66a241.4,241.4,0,0,0-31.67-5.43,244,244,0,0,0-20.75-24.94c16.26-15.12,31.52-23.4,41.9-23.4V0c-13.72,0-31.68,9.78-49.83,26.74C104.1,9.88,86.14.2,72.43.2V11.32c10.32,0,25.63,8.23,41.89,23.25a236.25,236.25,0,0,0-20.6,24.89A232.61,232.61,0,0,0,62,64.94c-1.15-5-2-9.82-2.59-14.46-2.35-19.06.55-33.87,7.28-37.81a11.09,11.09,0,0,1,5.74-1.3V.25A22.32,22.32,0,0,0,61.15,3c-14,8.08-17.16,33.27-9.92,64.9C20.2,77.51,0,92.83,0,109s20.3,31.57,51.43,41.1c-7.19,31.72-4,57,10.07,65a21.86,21.86,0,0,0,11.22,2.79c13.72,0,31.68-9.77,49.83-26.73,18.16,16.86,36.12,26.54,49.83,26.54a22.22,22.22,0,0,0,11.28-2.8c14-8.08,17.16-33.27,9.92-64.89,30.93-9.53,51.13-24.89,51.13-41ZM179.77,75.72c-1.85,6.43-4.14,13.07-6.74,19.7-2-4-4.19-8-6.53-12s-4.74-7.88-7.18-11.67q10.62,1.56,20.45,3.94Zm-22.85,53.12c-3.89,6.73-7.88,13.12-12,19-7.43.65-15,1-22.54,1s-15.07-.35-22.45-.95C95.77,142,91.73,135.67,87.84,129s-7.23-13.17-10.38-19.85c3.1-6.69,6.59-13.37,10.33-19.91,3.89-6.73,7.88-13.11,12-19,7.43-.65,15-1,22.55-1s15.06.35,22.44.95q6.21,8.91,12.07,19c3.79,6.53,7.23,13.16,10.38,19.85-3.15,6.68-6.59,13.37-10.33,19.9ZM173,122.36c2.7,6.68,5,13.36,6.89,19.85-6.54,1.59-13.42,2.94-20.55,4,2.44-3.84,4.88-7.78,7.18-11.82s4.44-8,6.48-12Zm-50.58,53.22a209.13,209.13,0,0,1-13.86-16c4.49.19,9.08.34,13.72.34s9.32-.1,13.86-.34A195.89,195.89,0,0,1,122.45,175.58ZM85.34,146.2q-10.62-1.57-20.45-3.94c1.85-6.44,4.14-13.07,6.74-19.71,2,4,4.19,8,6.53,12S82.9,142.41,85.34,146.2ZM122.21,42.4a207.23,207.23,0,0,1,13.86,16c-4.49-.2-9.08-.35-13.71-.35s-9.33.1-13.87.35A194.21,194.21,0,0,1,122.21,42.4ZM85.29,71.78c-2.44,3.84-4.88,7.78-7.18,11.82s-4.44,8-6.48,12c-2.7-6.68-5-13.37-6.89-19.85,6.54-1.55,13.42-2.9,20.55-3.94ZM40.15,134.23C22.5,126.69,11.07,116.82,11.07,109S22.5,91.23,40.15,83.75c4.29-1.85,9-3.49,13.82-5a239,239,0,0,0,11.22,30.38,235.5,235.5,0,0,0-11.07,30.22c-4.94-1.54-9.63-3.24-14-5.08ZM67,205.5c-6.79-3.89-9.73-18.7-7.43-37.75.55-4.69,1.44-9.63,2.54-14.67a241.37,241.37,0,0,0,31.67,5.44,244,244,0,0,0,20.75,24.94C98.26,198.57,83,206.85,72.62,206.85A11.85,11.85,0,0,1,67,205.5Zm118.31-38c2.35,19.05-.55,33.86-7.28,37.81a11.19,11.19,0,0,1-5.74,1.29c-10.32,0-25.63-8.23-41.89-23.24A236.25,236.25,0,0,0,151,158.47,232.57,232.57,0,0,0,182.71,153,139.34,139.34,0,0,1,185.3,167.5Zm19.21-33.27c-4.29,1.84-9,3.49-13.82,5a238.88,238.88,0,0,0-11.22-30.37,235.62,235.62,0,0,0,11.07-30.23c4.94,1.55,9.63,3.24,14,5.09,17.65,7.53,29.08,17.41,29.08,25.24s-11.48,17.75-29.13,25.24Z"/><circle class="cls-1" cx="122.31" cy="108.99" r="22.8"/></g></g></svg>