<svg xmlns="http://www.w3.org/2000/svg" viewBox="0 0 1387 1050"><defs><style>.cls-1{fill:#fcf4e1;}</style></defs><title>backgr3</title><g id="Layer_2" data-name="Layer 2"><g id="Layer_1-2" data-name="Layer 1"><circle class="cls-1" cx="1325.5" cy="649.5" r="61.5"/><circle class="cls-1" cx="1325.5" cy="455.5" r="44.5"/><circle class="cls-1" cx="1142" cy="772" r="61"/><circle class="cls-1" cx="1156.5" cy="535.5" r="22.5"/><circle class="cls-1" cx="1095.5" cy="272.5" r="61.5"/><circle class="cls-1" cx="1095.5" cy="78.5" r="44.5"/><circle class="cls-1" cx="912" cy="395" r="61"/><circle class="cls-1" cx="926.5" cy="158.5" r="22.5"/><circle class="cls-1" cx="474.5" cy="866.5" r="61.5"/><circle class="cls-1" cx="474.5" cy="672.5" r="44.5"/><circle class="cls-1" cx="291" cy="989" r="61"/><circle class="cls-1" cx="305.5" cy="752.5" r="22.5"/><circle class="cls-1" cx="244.5" cy="489.5" r="61.5"/><circle class="cls-1" cx="244.5" cy="295.5" r="44.5"/><circle class="cls-1" cx="61" cy="612" r="61"/><circle class="cls-1" cx="75.5" cy="375.5" r="22.5"/><circle class="cls-1" cx="673.5" cy="238.5" r="61.5"/><circle class="cls-1" cx="673.5" cy="44.5" r="44.5"/><circle class="cls-1" cx="490" cy="361" r="61"/><circle class="cls-1" cx="504.5" cy="124.5" r="22.5"/><circle class="cls-1" cx="820.5" cy="818.5" r="61.5"/><circle class="cls-1" cx="820.5" cy="624.5" r="44.5"/><circle class="cls-1" cx="651.5" cy="704.5" r="22.5"/></g></g></svg>