<svg xmlns="http://www.w3.org/2000/svg" viewBox="0 0 545.35 778.04"><defs><style>.cls-1{fill:#5484c7;}.cls-2{fill:#f04900;}.cls-3{fill:#ffc881;}.cls-4{fill:#35406e;}.cls-5{fill:#fdbc04;}.cls-6{fill:#653200;}.cls-7,.cls-9{fill:#fff;}.cls-8{fill:none;}.cls-8,.cls-9{stroke:#fff;stroke-miterlimit:10;stroke-width:2px;}</style></defs><title>svg1</title><g id="Layer_2" data-name="Layer 2"><g id="Layer_1-2" data-name="Layer 1"><path class="cls-1" d="M65.74,651.76c-68-92.9-49.14-215.79-41-271C38.15,289.87,74.6,222,100.06,182.57L2.74,90.76a20.38,20.38,0,0,1,1-22c5.47-7.41,16-10.08,25-6l98.1,82.07,75.9-87.07c46.08-65.62,132.77-73.45,178-33,34.21,30.59,44,88.17,20,139l-48.69,86,130.69-1c18.13-.08,29.75,12.43,29,21-.73,8.37-13.73,18.36-31,16l-147.81,2.57c-57.36,122.23-46.69,180.19-24.19,210.43,50.4,67.71,182.05,23.16,224,99,19.73,35.66,15.23,85-6,116C460.2,810.91,177.17,803.89,65.74,651.76Z"/><path class="cls-2" d="M415.61,407l-10.1-7.5a2,2,0,0,0-.95-1.61q-14.47-10.1-28.92-20.27a2.32,2.32,0,0,0-3.23.42,2.48,2.48,0,0,0-.41.85c-1,1.75.28,3.57,1.91,4.93s3.66,3,5.51,4.6a2.32,2.32,0,0,0-.6.65c-1.48,2.3-3.94,5.57-4,8.45s2.3,4.3,4.1,5.87v.41c-.37,3.55,1.19,4.61,4,6.29a2.29,2.29,0,0,0,1.87.32,38.53,38.53,0,0,0,6.15,3.27L399.5,418c2.16,1.11,3.73-1.5,2.85-3.25,1.7.14,2.42-1.72,2-3.17a2,2,0,0,0,.48-.76v-.12l2.95,2.3c2.3,1.87,5.21-1.84,2.83-3.7l-2.09-1.66,4.3,3.22a2.39,2.39,0,1,0,2.81-3.87Z"/><path class="cls-3" d="M389,678.17l4.94-.15,16.7-35.91-19.5-9.76s-7.51,15.14-13.81,16.45-16.69-6.56-18-6.78-8.22-5.64-13-4.4,6.66,16.65,14.1,22A72.55,72.55,0,0,0,377.13,668s6.05-8.36,8.46-6.13-1.91,12-1.91,12Z"/><path class="cls-4" d="M492.31,495a226.3,226.3,0,0,1-12.46,39.6c-6.24,14.29-65,124.28-65,124.28s-16.85,5.52-42.37-14.41c-3.71-2.88,45.8-112.72,45.8-112.72l33.1-45.59"/><path class="cls-5" d="M484.14,421.2c-1.43,0-49.3-1.25-81.65-30.24,0,0-15.5,15.2-9.21,26.83,0,0,45.87,44.18,80.84,35.14"/><path class="cls-3" d="M433.3,734.72l3.64-2.3v-41l-18-.64s-.34,17.47-4.6,21.46-14.76,1.13-15.8,1.47-8.1-1.7-11.28,1.57S398,728,405.46,729.74a47.87,47.87,0,0,0,15.43.58s1.61-10.48,4.19-9.44S427.84,733,427.84,733Z"/><path class="cls-4" d="M444.77,492.23c-33.64,35.89-44.3,67.72-48,89.53-8.86,51.89,9.48,118,9.48,118s22.43,8.19,42.37,1.77q-5.43-51.4-10.85-102.8a103.75,103.75,0,0,0,54.44-112.52"/><path class="cls-5" d="M490.45,414.36l-9.37-3.57c-2.42.16-23.95,7.21-33.74,21.46a93.71,93.71,0,0,0-3.13,13.65c-1.24,6.15-2.3,12.32-3.08,18.42a135.22,135.22,0,0,0-1.15,20.4,59.25,59.25,0,0,0,.46,7.3,12.71,12.71,0,0,0,3.63,2.58c28.28,12.16,50.66-2.6,51.79-4.88s4.86-35.62,6.91-55.47A19.2,19.2,0,0,0,490.45,414.36Z"/><path class="cls-2" d="M467.26,378.05s-8.89,32.23,2.93,36.68,27-8.29,28.62-14.88S485.06,368.35,467.26,378.05Z"/><path class="cls-5" d="M525.68,368.4a15,15,0,0,0-17.87-8c-6.52,2.12-10.45,7.72-12.36,14-5.88-5.14-14.63-7.74-25.73-4.33,0,0-10.89,4.6-8.91,11.51s10.25,6.91,17.18,8.27,1.31,7.44,1.66,14.27,3.43,8,6.31,8.57,16-2.3,17.8-17.66a20.64,20.64,0,0,0,.14-2.83,37.54,37.54,0,0,0,5.41.16,20.12,20.12,0,0,0,11.51-3.18A17.45,17.45,0,0,0,525.68,368.4Z"/><path class="cls-2" d="M456,413.34a6.11,6.11,0,0,0,1.08-4.37,2.3,2.3,0,0,0-4.19-1l-1,1.38c-.16-1.77-.35-3.54-.6-5.32a2.31,2.31,0,1,0-4.61.17c0,.55-.14,1.12-.18,1.68a9.36,9.36,0,0,0-.39,1.82c-2.51.32-5.51,1.24-5.94,4.12V412c-1.94,0-3.83.76-3.89,3.06a7.28,7.28,0,0,0,0,1.32c-2,.57-3.39,1.56-3.11,4.12a37.32,37.32,0,0,0,2.3,8.68,2.29,2.29,0,0,0,1.75,1.31c.28,1.24.6,2.47.94,3.69a3.47,3.47,0,0,0,4.62,1.59,3.55,3.55,0,0,0,1.19-.95,2.82,2.82,0,0,0,.69-.14,2.27,2.27,0,0,0,1.91.32,2.3,2.3,0,0,0,3.21-.54A1.93,1.93,0,0,0,450,434a2.3,2.3,0,0,0,.76-1.94V430.5h0Q453.46,422,456,413.34Z"/><path class="cls-5" d="M452,425.32c-.74.18-11.1-9.33-18.95-6.06,0,0-29.94,50.47-2,63.83,13.82,6.63,24.57-13.82,24.57-13.82l-7.94-15.7Z"/><path class="cls-2" d="M449.55,427.37a100.74,100.74,0,0,0-13.3,34.9c-.26,1.45,1.95,2.08,2.3.63a98.84,98.84,0,0,1,13.08-34.36A1.19,1.19,0,0,0,449.55,427.37Z"/><path class="cls-2" d="M455.1,471.21c-2.3,4.49-5.25,9.21-9.85,11.51a15.11,15.11,0,0,1-16.65-2.58c-9.81-8.45-8.33-23-6.38-34.38.26-1.45-2-2.07-2.3-.62-2.3,12.76-3.48,29.34,8.57,37.88a17.29,17.29,0,0,0,16.32,2.3c5.76-2.3,9.42-7.78,12.18-13.1C457.77,471.07,455.75,469.9,455.1,471.21Z"/><path class="cls-6" d="M492.74,523.76a127.93,127.93,0,0,1-26,48,122.71,122.71,0,0,1-34,27q10.31,103.07,11,103t-8-101a130.63,130.63,0,0,0,32-28C487.4,548.74,492.93,523.84,492.74,523.76Z"/><circle class="cls-7" cx="248.99" cy="90.01" r="8.5"/><circle class="cls-8" cx="248.99" cy="90.01" r="29"/><circle class="cls-7" cx="314.99" cy="140.01" r="8.5"/><circle class="cls-8" cx="314.99" cy="140.01" r="29"/><path class="cls-8" d="M272.74,106.76a13.34,13.34,0,0,1,14,0,13.53,13.53,0,0,1,5,16"/><path class="cls-8" d="M215.74,128.76c.39,4.61,2.56,24,19,39,19.81,18.13,44.4,15.45,48,15"/><path class="cls-9" d="M227.74,159.76l-7,6,8,8,6-6"/><path class="cls-9" d="M238.74,171.76c-1.66,1.67-3.33,3.33-5,5l9,6,5-6"/></g></g></svg>