<svg xmlns="http://www.w3.org/2000/svg" xmlns:xlink="http://www.w3.org/1999/xlink" viewBox="0 0 305.37 338.02"><defs><style>.cls-1,.cls-2{fill-rule:evenodd;}.cls-2{fill:url(#linear-gradient);}</style><linearGradient id="linear-gradient" y1="112.9" x2="249.74" y2="112.9" gradientUnits="userSpaceOnUse"><stop offset="0" stop-color="#387eb8"/><stop offset="1" stop-color="#366994"/></linearGradient></defs><title>adbe</title><g id="Layer_2" data-name="Layer 2"><g id="Layer_1-2" data-name="Layer 1"><path class="cls-1" d="M260.76,7.73H279.3L278.72,11h-3.48a10,10,0,0,1-2.9-.39v6c0,2.12-.58,4.25-.58,6.37s-.58,4.25-.58,5.41h-4.63V23c0-2.12.58-4.25.58-6.37,0-2.32.58-5,.58-6h-4.64a8.36,8.36,0,0,0-2.32.39V7.73Zm20.85,0H288a25.32,25.32,0,0,0,.58,2.89c0,1,1.15,2.7,1.73,4.83,0,.58.58,2.12.58,3.28A22.75,22.75,0,0,0,292.62,23c0-1.16,1.16-2.7,1.74-4.83.58-1.54,1.74-3.86,2.32-5.4.58-1.74,1.73-3.87,1.73-5h7v6.56c0,2.32-.58,5.41-.58,7.53v6.57h-4.64V18.73c0-1.74.58-3.28.58-4.44V12.17l-6.37,16.22h-4.64c0-1.16-1.15-3.28-1.15-4.83-.58-2.7-1.74-4.83-1.74-5.4,0-1.16-1.16-3.29-1.74-5.41v5.41c0,1.54-.58,3.67-.58,5.4v4.83h-4.63c0-2.12.58-4.83.58-7.14,0-1.93.57-4.64.57-7,0-2.12.58-4.25.58-6.56ZM58.72,336.66H46.36l-4.83-17.38H18.73l-4.82,17.38h-12L23,259.79H36.51ZM38.05,306.72l-8.11-29-7.54,29Zm65.09,29.94H92.71v-7.92c-1.74,3.48-4,5.8-6.18,6.76-2.12,1.16-4.44,2.52-6.76,2.52-4.25,0-8.5-2.9-11.59-7.73-3.48-4.44-5-12.16-5-21.24,0-9.27,1.55-17.39,4.44-22.22,3.09-4.63,7.54-7.53,12.75-7.53,4.06,0,8.31,2.9,12,8.11V259.79h10.81v76.87Zm-29.36-29c0,5.79.78,11,1.74,13.33,1.74,3.48,4.25,5.79,7.15,5.79,2.7,0,4.83-1.74,6.57-3.86,1.73-2.9,3.09-7.73,3.09-13.52,0-6.18-1-11.4-2.71-14.3-1.54-2.89-4.25-4.82-7-4.82-2.32,0-4.44,1.93-6.37,4.25-1.74,2.89-2.52,7.34-2.52,13.13Zm38.25,0A37.88,37.88,0,0,1,114.35,294a24.32,24.32,0,0,1,7.53-10.43,19.21,19.21,0,0,1,11.2-4.25,18.56,18.56,0,0,1,15.26,8.11c4.06,5.79,6.18,13.52,6.18,21.63s-2.12,15.46-6.18,20.67c-4.25,5.41-9.27,8.31-15.26,8.31a21,21,0,0,1-10.81-3.48c-3.48-2.32-6-5.79-7.92-10-1.74-4.45-2.32-10.24-2.32-16v-.77ZM122.84,309c0,5.8.58,10.24,2.32,13.14,1.93,2.89,4.83,4.63,7.54,4.63,2.51,0,5.4-1.74,7.14-4.63,1.93-2.9,3.09-7.34,3.09-13.14s-1.16-10.62-3.09-13.52c-1.74-3.28-4.63-5.21-7.14-5.21-2.71,0-5.41,1.93-7,4.82a30.46,30.46,0,0,0-2.9,13.91ZM163,336.66V259.79h10.81v27.62c3.1-5.22,7.54-8.11,11.79-8.11,5,0,9.27,2.9,12.55,7.53,3.28,4.83,5.22,12.17,5.22,21.63,0,9.28-1.93,17.39-5.22,21.83-3.47,4.83-7.72,7.73-12,7.73-2.32,0-4.83-1.36-7-2.52-2.31-1-4.44-3.86-5.6-6.76v7.92Zm10.81-29c0,5.79,1,11,1.93,13.33,1.74,3.48,4.64,5.79,7.73,5.79,2.71,0,4.83-1.74,6.38-3.86,1.73-2.32,2.7-7.73,2.7-13.52,0-6.18-1-11.4-2.7-14.3-1.55-2.89-4.26-4.82-7-4.82-2.51,0-4.63,1.93-6.37,4.25-1.74,2.89-2.71,7.34-2.71,13.13Zm62.39,11.59L247,321c-1.16,5.79-3.87,10.62-6.57,12.75A20.28,20.28,0,0,1,228.69,338,17.83,17.83,0,0,1,213,328.75c-2.7-4.83-3.86-11.59-3.86-19.32,0-9.08,1.54-16.8,5-22s8.5-8.11,13.91-8.11c6,0,10.81,2.9,14.1,8.11,3.67,5.79,5.79,14.49,5.79,25.5H220c0,4.83.58,8.11,2.52,10.62a7.42,7.42,0,0,0,6.17,3.28c1.94,0,3.67-.38,4.44-1.74a25.41,25.41,0,0,0,3.09-5.79Zm1-15.45a21.22,21.22,0,0,0-2.71-9.85,7.58,7.58,0,0,0-6-3.67c-2.52,0-4.83,1.93-6,4.25-1.93,2.31-2.51,5.79-2.51,9.27Z"/><path class="cls-2" d="M0,0H92.71L0,225.8ZM155.87,0h93.87V222.89ZM125.35,86.34l51.19,135.4H144.86L123,178.86H88.27Z"/></g></g></svg>