<svg xmlns="http://www.w3.org/2000/svg" viewBox="0 0 262.96 199.07"><defs><style>.cls-1{fill:#5484c7;}</style></defs><title>brig</title><g id="Layer_2" data-name="Layer 2"><g id="Layer_1-2" data-name="Layer 1"><rect class="cls-1" x="150.72" y="86.66" width="93" height="93" transform="translate(236.54 367.85) rotate(-133.54)"/><rect class="cls-1" x="19.24" y="83.3" width="93" height="93" transform="translate(16.93 266.87) rotate(-133.54)"/><path class="cls-1" d="M134.8,1.41l62.68,66-66,62.69-62.69-66,66-62.69m0-1.41L67.42,64.06l64.06,67.42L198.9,67.42,134.84,0Z"/><path class="cls-1" d="M65,195.37a.23.23,0,0,0,.24.39,165.85,165.85,0,0,1,129,3.29.23.23,0,0,0,.26-.38c-6.51-6.22-31.19-27.7-68.35-27C93.92,172.26,72.11,189.23,65,195.37Z"/></g></g></svg>