<svg xmlns="http://www.w3.org/2000/svg" viewBox="0 0 202.79 144.06"><defs><style>.cls-1{fill:#fff;}.cls-1,.cls-3,.cls-5,.cls-6,.cls-7{stroke:#000;}.cls-1,.cls-2,.cls-3,.cls-5,.cls-6,.cls-7{stroke-miterlimit:10;}.cls-1,.cls-3,.cls-5,.cls-6{stroke-width:0.75px;}.cls-2,.cls-6,.cls-7{fill:none;stroke-linecap:round;}.cls-2{stroke:#666;}.cls-3{fill:#fdbc04;}.cls-4{fill:#040404;}.cls-5{fill:#5484c7;}.cls-7{stroke-width:0.5px;}</style></defs><title>image 7i</title><g id="Layer_2" data-name="Layer 2"><g id="Layer_1-2" data-name="Layer 1"><rect class="cls-1" x="107.42" y="13.67" width="95" height="81" rx="12"/><line class="cls-2" x1="119.41" y1="37.17" x2="190.41" y2="37.17"/><rect class="cls-3" x="170.42" y="32.91" width="3" height="8" rx="1.5" transform="translate(0.54 -2.42) rotate(0.81)"/><line class="cls-2" x1="119.41" y1="50.17" x2="190.42" y2="50.17"/><rect class="cls-3" x="136.42" y="45.67" width="3" height="8" rx="1.5" transform="translate(275.83 99.35) rotate(180)"/><circle class="cls-3" cx="142.92" cy="69.17" r="5.5"/><circle class="cls-3" cx="166.92" cy="69.17" r="5.5"/><path class="cls-3" d="M32.42,42.67q.49-8,1-16h13l1,17h0c.13,3.67.07,3.86,0,4-.56,1-3.25,1.72-15-2Z"/><path class="cls-4" d="M39.8,32.17a2.44,2.44,0,0,0-1.92,4l0,0a60.83,60.83,0,0,0,5.23,5.67A2.44,2.44,0,0,0,47.28,40a26.66,26.66,0,0,0-.36-3.82c-.13-.77-.3-1.51-.47-2.2a2.43,2.43,0,0,0-2.36-1.8Z"/><path class="cls-1" d="M31.92,43.17c3.58,3.25,8.2,4.48,12,3a9.65,9.65,0,0,0,4-3l6.5,2.5a32.83,32.83,0,0,1,2,3c6.35,10.93,3.2,21.4,5,38a154.74,154.74,0,0,1,1,17v1c0,4.9,0,13,0,27h-24a133.83,133.83,0,0,1-6.5-88.5Z"/><path class="cls-3" d="M105.42,62.67l16.25-18.16a6.83,6.83,0,0,1,2.1-1.63q1.19-.57,1.65-.21c.72.57.08,2.88-1.93,6.91a7.22,7.22,0,0,0-.65,4.17,14.12,14.12,0,0,1-.42,5.92c-1.76,5.9-7.13,8.94-9,10a20.39,20.39,0,0,1-2,1Z"/><path class="cls-5" d="M57.52,49.12c-.07-.23-.42-1.22-.1-1.45.6-.43,3.11,2.11,4,3,4.59,4.63,13.5,20.73,19,31h2l16-16a11.52,11.52,0,0,1,8-4q4,3.51,8,7a9.11,9.11,0,0,1,1,4c0,3.13-1.76,5.43-3,7-7,8.79-9,11-9,11a114.23,114.23,0,0,1-16,15,10.4,10.4,0,0,1-4,2c-5,1.19-9.63-2-11-3a22.64,22.64,0,0,1-5-5C63.16,93.57,59.19,54.07,57.52,49.12Z"/><path class="cls-5" d="M52.42,44.67a16.56,16.56,0,0,1,3,5,16.35,16.35,0,0,1,1,5c.23,5,1.86,39.68,4,87h8a28.67,28.67,0,0,0,3-10c-.13-6.81-.39-16.82-1-29-.33-6.43-.54-10.5-1-16-2.56-30.21-7.13-36.09-11-39A19.43,19.43,0,0,0,52.42,44.67Z"/><path class="cls-3" d="M29.64,20.35a36.12,36.12,0,0,0,1.55,8.25l2.6,3.81A10.22,10.22,0,0,0,36,33.83a11.77,11.77,0,0,0,10.7-.39C53.57,29.27,52,17.13,49.1,13a12.06,12.06,0,0,0-.82-1A13.44,13.44,0,0,0,40,8.45,14.19,14.19,0,0,0,30,12,35.76,35.76,0,0,0,29.64,20.35Z"/><path class="cls-4" d="M34.4,15v-.6a1.2,1.2,0,0,1,1.2-1.2H48a4.61,4.61,0,0,0,4.88-2,4.53,4.53,0,0,0,0-4,5.58,5.58,0,0,0-5-3,7.34,7.34,0,0,0-5-4,7.06,7.06,0,0,0-5,1,7.42,7.42,0,0,0-8,0,7.34,7.34,0,0,0-3,5,5.89,5.89,0,0,0-5,10,7.41,7.41,0,0,0-3,7,7.67,7.67,0,0,0,8,6,3.82,3.82,0,0,0,1,4,3.88,3.88,0,0,0,5,0,2.61,2.61,0,0,0,0-2c-.26-.5-.64-.65-1-1a4.32,4.32,0,0,1-1-3A51.37,51.37,0,0,0,29,18.61a10.68,10.68,0,0,0,.91,1.56,11.77,11.77,0,0,0,.88,1.13,30.82,30.82,0,0,1,1.8-3.59A28.08,28.08,0,0,1,34.4,15Z"/><path class="cls-3" d="M30.42,19.67c-.94-1.26-1.69-1.32-2-1.3-1.59.08-3.37,3.16-2.38,5.55a4.67,4.67,0,0,0,5.55,2.38"/><path class="cls-6" d="M28.45,20a2.09,2.09,0,0,0-1.58,1.59,2.15,2.15,0,0,0,1.58,2.38"/><circle cx="41.42" cy="20.17" r="1"/><circle cx="47.92" cy="19.67" r="1"/><path class="cls-7" d="M45.42,18.67l.93,6.5a.44.44,0,0,1-.44.5H44.42"/><path class="cls-7" d="M43.42,26.67a4.51,4.51,0,0,0,2,0,4.55,4.55,0,0,0,2-1"/><path class="cls-5" d="M32.42,42.67a29.71,29.71,0,0,1,8,11,29.73,29.73,0,0,1,2,13c-.5,10.46-.69,38.17-1,76l-32,1a12.6,12.6,0,0,1-1-2,16,16,0,0,1-1-5c-.16-5.34,6-51.94,16-77l4-10c.57-.78,2.45-3.09,2-5a1.41,1.41,0,0,1,0-1C29.79,42.84,31.25,42.68,32.42,42.67Z"/><path class="cls-3" d="M34.42,67.67a93.37,93.37,0,0,0,1-13v-1L34,51.51a2,2,0,0,1-.08-2.18,3.85,3.85,0,0,1,.52-.66,4.25,4.25,0,0,1,2-1c1.8-.37,5.58,2.52,9.53,7.41a2,2,0,0,1,.45,1.34,36.57,36.57,0,0,1-1,7.25,37.53,37.53,0,0,1-2,6"/><path class="cls-5" d="M31.42,42.67a29.06,29.06,0,0,0-14,6c-1.45,1.19-6.07,5.23-11,22-1.29,4.4-5.54,19.64-6,42-.07,3.32,0,6.09,0,8,.23.94,2,7.5,7,9,2.05.62,5,.49,10-3,5.71-4,12.57-11.27,20-32a185.73,185.73,0,0,0,7-25l-17-8q-5.51,14-11,28"/></g></g></svg>