<svg xmlns="http://www.w3.org/2000/svg" viewBox="0 0 557.2 680.57"><defs><style>.cls-1{fill:#fdbc04;}.cls-1,.cls-2,.cls-3,.cls-4,.cls-5,.cls-6,.cls-8,.cls-9{stroke:#000;}.cls-1,.cls-2,.cls-3,.cls-4,.cls-5,.cls-6,.cls-7,.cls-8,.cls-9{stroke-miterlimit:10;}.cls-1,.cls-2,.cls-3,.cls-5,.cls-8,.cls-9{stroke-width:0.75px;}.cls-2{fill:#999;}.cls-3{fill:#5484c7;}.cls-4{fill:#2a4264;}.cls-6{fill:#42210b;}.cls-7,.cls-8,.cls-9{fill:none;}.cls-7{stroke:#fff;}.cls-7,.cls-9{stroke-linecap:round;}</style></defs><title>image_signin</title><g id="Layer_2" data-name="Layer 2"><g id="Layer_1-2" data-name="Layer 1"><path class="cls-1" d="M556.5,530.85c6.33,79.1-80.78,138.94-152,148-66.41,8.44-149.65-23.4-168-82-9.35-29.88.46-59.37,3-67,1.67-5,17.82-51.3,61-71,22.11-10.09,28.71-3.46,55-15,29.26-12.85,33.15-28.36,49-35C446.94,391.06,549.83,447.45,556.5,530.85Z"/><path class="cls-2" d="M343.74,167.34H326.63a27.54,27.54,0,0,0-12.22,7.33c-5.55,5.9-6.74,13.08-7.33,17.11-2,13.52-5,45.51-7.34,88-23.19,5.17-52.51,15.43-80.65,36.66-5.31,4-10.19,8.11-14.67,12.22l9.78,22L312,348.21a55.54,55.54,0,0,0,29.33-14.67c22-21.58,15.21-53.86,14.67-56.21"/><path class="cls-2" d="M321.74,189.34a214.78,214.78,0,0,0-12.22,73.32,29.27,29.27,0,0,0,12.22,19.55l4.89,61.11a176.08,176.08,0,0,0,66,12.22,173.65,173.65,0,0,0,39.11-4.89A362.65,362.65,0,0,0,441.51,248a358.74,358.74,0,0,0-4.89-44"/><path class="cls-3" d="M129.49,566l-12.1,13.74a4.05,4.05,0,0,1-3.4,1.36,30.09,30.09,0,0,1-4.57-.75,32.41,32.41,0,0,1-9.85-4.17L71,585.19c8.36,4.85,17.32,10.54,26.6,17.23a319.14,319.14,0,0,1,25.78,20.65l31.88-47"/><path class="cls-3" d="M192,575.9l-5.5,11.79c-7.65,8.4-14.2,14.65-18.87,18.87-6.63,6-12,10.27-14.15,18.09a25.27,25.27,0,0,0-.79,8.65,41.75,41.75,0,0,0,18.87,2.35c18.85-2.09,29.54-16.91,31.45-19.65q2.22-6.21,4.72-12.58c3.79-9.69,7.75-18.87,11.79-27.52"/><path class="cls-4" d="M324,358.11l-102.49,73.2a51.62,51.62,0,0,0-12.78,13.17L121.19,575.11l30.66,25.95c28.35-31.56,56.84-65.83,84.92-103q11.32-15,22-29.88a259.94,259.94,0,0,0,106.15-54.25,255.72,255.72,0,0,0,48.74-55.82Z"/><path class="cls-5" d="M188.41,583.76l22.2,11.8q3.45-7.87,6.89-15.73l-25.26-5.5Q190.33,579,188.41,583.76Z"/><path class="cls-4" d="M379.3,359.4l-91.64,36.73a77.78,77.78,0,0,0-42.51,42.07L185.27,579.5l33.54,15.66A1067.33,1067.33,0,0,0,296.26,488q4.85-7.67,9.49-15.29a19.05,19.05,0,0,1,15.87-9.28c44-.84,82.4-21.38,100-55.39,9.85-19,11-38.11,10.38-51.11Z"/><path class="cls-1" d="M63.78,244.77H203.19a3.71,3.71,0,0,1,3.6,2.79q12.51,48.87,25,97.74a3.72,3.72,0,0,1-3.54,4.64l-148.5,2.32A3.72,3.72,0,0,1,76,349.13q-7.95-50-15.92-100.06A3.72,3.72,0,0,1,63.78,244.77Z"/><rect class="cls-6" x="0.5" y="349.85" width="526" height="14.15" rx="7.08"/><path class="cls-3" d="M365.67,326.28a10.13,10.13,0,0,1-10.6,2.37,50.45,50.45,0,0,0-26-2.44c-2.59.46-26,4.93-29.33,19.55l0,.09a5.37,5.37,0,0,0,6,6.4l13.87-1.94a5.25,5.25,0,0,1,1,0c9.75.39,17.62,1,23.1,1.55,0,0,21,2,29.8-.07,2.15-.51,4.42-1.09,4.42-1.09h0c5.75-1.49,10.85-3.14,15.22-4.72a5.39,5.39,0,0,0,2.5-8.31l-14-18.65a5.39,5.39,0,0,0-8.13-.58Z"/><path d="M363.29,169.78c10.2-.79,13,4.66,24.44,7.34,1.81.42,21.94,4.88,29.33-4.89A15.31,15.31,0,0,0,419.51,160c-.12-.54-1.72-7.31-7.33-9.78-4.11-1.81-8.35-.43-9.78,0-19.81,5.93-44-7.67-51.33,2.44-3.66,5.07-1.8,14.34,2.45,17.11C356.13,171.49,358.71,170.14,363.29,169.78Z"/><path d="M356,155.12a24.48,24.48,0,0,0,7.33-4.89,25.71,25.71,0,0,0,7.33-14.67L356,138Z"/><path class="cls-2" d="M341.29,167.34h75.32a35.79,35.79,0,0,1,33.93,24.33,444.91,444.91,0,0,1,13,46.55c7.74,35,7.18,53.32,4.89,61.1-12.52,42.65-88,52.86-95.32,53.78l-9.78-24.45c9.6-14.38,25.08-32.72,48.89-46.44a139.06,139.06,0,0,1,14.66-7.33"/><path class="cls-3" d="M356,136.85v30.76a3.5,3.5,0,0,1-1.94,3.14h0a3.52,3.52,0,0,0-1.59,4.68,36.47,36.47,0,0,0,8.42,11.46c12.53,11.36,35.47,15.37,44,4.89.9-1.11,4.66-6.09,3-16.62a3.55,3.55,0,0,0-3.19-3,15.86,15.86,0,0,1-11.54-6.54,3.61,3.61,0,0,1-.63-1.53q-4.23-26.38-8.45-52.77a3.51,3.51,0,0,0-6.15-1.72q-10.54,12.48-21.11,25A3.51,3.51,0,0,0,356,136.85Z"/><path class="cls-2" d="M378,204c-3.31-3.42,10.21-19.38,17.11-39.11a42.81,42.81,0,0,1,4.89-9.77c2.54-3.82,5.65-8.46,9.77-9.78,7.57-2.41,20.19,5.85,22,14.67C435.92,180.41,383.48,209.72,378,204Z"/><path class="cls-2" d="M370.62,196.67c-15.61-21.22-15.85-48.89-22-48.88-5,0-13.9,18.21-7.34,34.21,7.42,18.08,30,22.11,31.78,19.56C373.71,200.65,372,198.52,370.62,196.67Z"/><path class="cls-7" d="M370.62,199.11c2.78,2.56,6.26,6.62,7.34,12.22a21.24,21.24,0,0,1,0,7.34c-.63,5.05.23,12.83,7.33,24.44"/><path class="cls-7" d="M382.85,201.56a12.92,12.92,0,0,0-2.45,7.33c.07,7.88,8.87,11.11,9.78,19.55.23,2.16,0,5.47-2.45,9.78"/><path class="cls-3" d="M320.52,75.68c-4.27,7.47-4,15.47-3.67,28.11.25,8.53.61,17.07,6.11,25.66a31.83,31.83,0,0,0,11,11c10,5.73,22.72,4.82,31.78,0,15.88-8.43,18.39-27.75,19.55-36.66,1.19-9.13,4-30.81-9.78-41.55C359.53,49.79,330.1,58.94,320.52,75.68Z"/><circle class="cls-5" cx="343.74" cy="98.9" r="2.44"/><circle class="cls-5" cx="324.19" cy="101.35" r="2.44"/><path class="cls-8" d="M331.52,94v17.11h7.33"/><circle class="cls-5" cx="336.41" cy="118.46" r="2.44"/><path d="M321.3,76.9H354A24.92,24.92,0,0,1,375.46,89l.05.09c7.64,13,9.69,29,9.78,29.33h0c7.08-18.17,8.79-22.79,9.78-29.33.71-4.75,1.72-11.43,0-19.56C393,59.7,386.73,47.12,378,42.69c-14.11-7.13-40.52,3.93-57.64,32.47A1.15,1.15,0,0,0,321.3,76.9Z"/><path class="cls-3" d="M375.51,89.13c4.54-5.59,11.74-7.45,17.11-4.89,6.49,3.09,7.26,11.21,7.34,12.22a16.11,16.11,0,0,1-2.45,9.77c-3.44,5.27-10.08,8-17.11,7.34"/><path class="cls-9" d="M385.29,89.13a9.28,9.28,0,0,1,4.89,2.44c3.82,3.73,2.53,9.42,2.44,9.78"/><path d="M360.85,47.57a12.78,12.78,0,0,1-17.11-17.1c-5.83-4.85-6.3-12.89-2.45-17.11,2.77-3,7.65-4,12.23-2.45-.15-4.12,1.7-8,4.88-9.77C362.9-1.41,369.66.37,373.07,6a7.91,7.91,0,0,1,9.78,0,7.73,7.73,0,0,1,2.44,7.34c.56.27,6.31,3.22,7.33,9.77a13.44,13.44,0,0,1-2.44,9.78c4.22,6.32,3.8,13.58,0,17.11a10.55,10.55,0,0,1-7.33,2.44c-3.44,5-9.62,6.91-14.67,4.89A12.21,12.21,0,0,1,360.85,47.57Z"/><path class="cls-5" d="M130.62,612.85a102.87,102.87,0,0,1-28.3-16.51,26.31,26.31,0,0,0,7.86-11,25.42,25.42,0,0,0,1.57-7.86c-5.57-4.75-9.8-8.51-12.58-11-.71-.64-7-6.34-12.6-8.88A24.53,24.53,0,0,0,81.43,556a10.87,10.87,0,0,0-13,6.94l0,.08a31.09,31.09,0,0,0-1.24,16.38c2.55,12.08,12.68,19.13,28.1,29.55a188.09,188.09,0,0,0,28.31,15.73Z"/><path class="cls-5" d="M206.1,608.14c-3.18,3.1-6.58,6.26-10.22,9.43-6.46,5.64-12.81,10.6-18.87,14.94a40.2,40.2,0,0,0-22.43-18,56.41,56.41,0,0,0-8.87,6,55.76,55.76,0,0,0-10.34,11.2,57.33,57.33,0,0,0-4.85,8.4,11.24,11.24,0,0,0,3.91,14.17l.06,0a29.57,29.57,0,0,0,14.91,4.56A36.94,36.94,0,0,0,175,649.68l26.34-22.5a7.8,7.8,0,0,0,2.63-4.76Q205,615.28,206.1,608.14Z"/></g></g></svg>