<svg xmlns="http://www.w3.org/2000/svg" viewBox="0 0 160 160"><defs><style>.cls-1{fill:#fdbc04;}.cls-2{fill:#fff;}</style></defs><title>phn</title><g id="Layer_2" data-name="Layer 2"><g id="Layer_1-2" data-name="Layer 1"><circle class="cls-1" cx="80" cy="80" r="80"/><path class="cls-2" d="M65.14,67.25A2.21,2.21,0,0,0,65,69.64,146.25,146.25,0,0,0,75.3,85.41,147.45,147.45,0,0,0,85.47,97.53a2.24,2.24,0,0,0,2,.66l8.91-1.62a2.14,2.14,0,0,1,1.65.35,122.52,122.52,0,0,1,13.25,10.49c2.46,2.24,4.71,4.47,6.74,6.64a2.21,2.21,0,0,1,.18,2.85,42.35,42.35,0,0,1-4.92,5.51,43.7,43.7,0,0,1-11,7.55,2.21,2.21,0,0,1-1.91,0A103.11,103.11,0,0,1,55.3,89.41,102,102,0,0,1,41.35,43.3a2.16,2.16,0,0,1,.54-1.57A44.48,44.48,0,0,1,58.77,30a2.19,2.19,0,0,1,2.53.69c.68.87,1.35,1.78,2,2.75a56.06,56.06,0,0,1,8.87,23.1,2.16,2.16,0,0,1-.41,1.63Q68.44,62.7,65.14,67.25Z"/></g></g></svg>