<svg xmlns="http://www.w3.org/2000/svg" viewBox="0 0 319.17 54.42"><defs><style>.cls-1{fill:#274a7a;}</style></defs><title>sec</title><g id="Layer_2" data-name="Layer 2"><g id="Layer_1-2" data-name="Layer 1"><path class="cls-1" d="M0,25.81H7.1a4.72,4.72,0,0,0,2.29,3.48,9,9,0,0,0,5,1.33,8.29,8.29,0,0,0,4.77-1.26A3.77,3.77,0,0,0,21,26.15a3.32,3.32,0,0,0-1.37-2.76,12,12,0,0,0-4.57-1.76l-4.59-1Q.78,18.56.78,10.79A9.48,9.48,0,0,1,4.55,3a15.18,15.18,0,0,1,9.71-3Q20.36,0,24,2.89a9.62,9.62,0,0,1,3.73,7.71h-6.9a4.57,4.57,0,0,0-2-3.51,7.72,7.72,0,0,0-4.58-1.28A7.37,7.37,0,0,0,9.88,7,3.68,3.68,0,0,0,8.2,10.16a3.1,3.1,0,0,0,1.36,2.61A12.28,12.28,0,0,0,14,14.48l4.28.9q5.3,1.12,7.71,3.5a8.61,8.61,0,0,1,2.42,6.41,9.82,9.82,0,0,1-3.86,8.15q-3.86,3-10.42,3-6.37,0-10.15-2.84A9.7,9.7,0,0,1,0,25.81Z"/><path class="cls-1" d="M58.43,29.74v6.1H35.09V.61H58.43V6.69h-16v8.5H57.52v5.66H42.46v8.89Z"/><path class="cls-1" d="M81.52,36.45q-7.71,0-12.19-4.87T64.85,18.21q0-8.46,4.49-13.34T81.52,0a17.22,17.22,0,0,1,7.63,1.66,13.84,13.84,0,0,1,5.51,4.69A13.69,13.69,0,0,1,97,13.26H89.83A8.32,8.32,0,0,0,87,8.06a8.16,8.16,0,0,0-5.51-2,7.93,7.93,0,0,0-6.66,3.28c-1.66,2.18-2.49,5.11-2.49,8.81s.82,6.72,2.46,8.9a8,8,0,0,0,6.72,3.26A8.39,8.39,0,0,0,87,28.54a8,8,0,0,0,2.81-4.93H97A13.45,13.45,0,0,1,92.22,33,16.22,16.22,0,0,1,81.52,36.45Z"/><path class="cls-1" d="M122.91,35.84h-7V.61H122l16.45,23h.2V.61h7.05V35.84h-6.1L123.13,12.77h-.22Z"/><path class="cls-1" d="M161.15,35.84h-7.38V.61h7.38Z"/><path class="cls-1" d="M200.7,21c0,4.81-1.38,8.57-4.14,11.31s-6.59,4.1-11.48,4.1q-7.92,0-12.44-4.88t-4.53-13.45c0-5.64,1.5-10.06,4.5-13.29S179.71,0,184.9,0a16.5,16.5,0,0,1,10.43,3.32,12.94,12.94,0,0,1,5,8.67H193a7.91,7.91,0,0,0-3-4.32,8.43,8.43,0,0,0-5.11-1.57,8.2,8.2,0,0,0-6.84,3.15q-2.46,3.15-2.46,8.77t2.57,9a8.43,8.43,0,0,0,7,3.29,8.53,8.53,0,0,0,5.89-2A7.1,7.1,0,0,0,193.5,23l0-.56h-7.66V17.07H200.7Z"/><path class="cls-1" d="M231.1,29.74v6.1H207.76V.61H231.1V6.69h-16v8.5H230.2v5.66H215.13v8.89Z"/><path class="cls-1" d="M246,23V35.84h-7.37V.61h14.43q6,0,9.39,3a10.48,10.48,0,0,1,3.35,8.24A11.29,11.29,0,0,1,264.1,18a9.51,9.51,0,0,1-4.7,3.87l7.42,14h-8.35L251.9,23Zm0-16.58V17.6h6.35a6,6,0,0,0,4.33-1.49A5.41,5.41,0,0,0,258.22,12a5.35,5.35,0,0,0-1.61-4.09,6,6,0,0,0-4.34-1.53Z"/><path class="cls-1" d="M280.2,35.84h-7.37V.61h7.37Z"/><path class="cls-1" d="M311.33,35.84l-2.68-8.55H296.27l-2.69,8.55H286L298.25.61h8.66l12.26,35.23Zm-9-28.49-4.52,14.43h9.21L302.54,7.35Z"/><path class="cls-1" d="M3.73,50.15H5.08a1.44,1.44,0,0,0,.66,1.05,2.53,2.53,0,0,0,1.45.39,2.28,2.28,0,0,0,1.37-.38,1.16,1.16,0,0,0,.54-1,1.07,1.07,0,0,0-.38-.84,3.08,3.08,0,0,0-1.24-.53l-1.15-.28a3.66,3.66,0,0,1-1.79-.87A2.07,2.07,0,0,1,4,46.21a2.27,2.27,0,0,1,.9-1.86,3.64,3.64,0,0,1,2.31-.71,3.5,3.5,0,0,1,2.27.71,2.35,2.35,0,0,1,.91,1.86H9a1.43,1.43,0,0,0-.56-1,2.14,2.14,0,0,0-1.31-.38,2.14,2.14,0,0,0-1.29.37,1.14,1.14,0,0,0-.5,1,.92.92,0,0,0,.38.76A3.15,3.15,0,0,0,7,47.38l1,.24a4.12,4.12,0,0,1,2,.9,2,2,0,0,1,.6,1.55,2.35,2.35,0,0,1-.91,2,3.87,3.87,0,0,1-2.49.73A3.79,3.79,0,0,1,4.71,52,2.43,2.43,0,0,1,3.73,50.15Z"/><path class="cls-1" d="M17.87,51.42V52.6h-5.6V43.79h5.6V45H13.64v2.57h4v1.14h-4v2.74Z"/><path class="cls-1" d="M23.54,52.75a3.73,3.73,0,0,1-2.94-1.23,4.82,4.82,0,0,1-1.09-3.33,4.81,4.81,0,0,1,1.09-3.32,3.74,3.74,0,0,1,2.94-1.23,3.84,3.84,0,0,1,2.54.85,3.24,3.24,0,0,1,1.2,2.22H25.93a2.24,2.24,0,0,0-.84-1.36,2.43,2.43,0,0,0-1.55-.51,2.32,2.32,0,0,0-1.92.91,4.56,4.56,0,0,0,0,4.89,2.32,2.32,0,0,0,1.93.91,2.55,2.55,0,0,0,1.54-.45,2.11,2.11,0,0,0,.84-1.24h1.36A3.36,3.36,0,0,1,26.05,52,4,4,0,0,1,23.54,52.75Z"/><path class="cls-1" d="M30.44,43.79v5.6a2,2,0,0,0,2.2,2.14,2.15,2.15,0,0,0,1.62-.59,2.1,2.1,0,0,0,.59-1.55v-5.6h1.36V49.5a3,3,0,0,1-1,2.35,3.65,3.65,0,0,1-2.6.9,3.65,3.65,0,0,1-2.6-.9,3.08,3.08,0,0,1-1-2.35V43.79Z"/><path class="cls-1" d="M39.75,49.21V52.6H38.38V43.79H41.8a3,3,0,0,1,2.15.73,2.52,2.52,0,0,1,.79,2,2.76,2.76,0,0,1-.45,1.57A2.41,2.41,0,0,1,43,49l2,3.6H43.43l-1.8-3.39Zm0-4.28v3.18h1.92a1.7,1.7,0,0,0,1.23-.42,1.55,1.55,0,0,0,.43-1.17,1.5,1.5,0,0,0-.45-1.16,1.77,1.77,0,0,0-1.25-.43Z"/><path class="cls-1" d="M48,52.6H46.61V43.79H48Z"/><path class="cls-1" d="M53.71,52.6H52.34V45h-2.7V43.79h6.77V45h-2.7Z"/><path class="cls-1" d="M63.66,51.42V52.6H58.07V43.79h5.59V45H59.44v2.57h4v1.14h-4v2.74Z"/><path class="cls-1" d="M65.23,50.15h1.35a1.46,1.46,0,0,0,.65,1.05,2.56,2.56,0,0,0,1.46.39,2.28,2.28,0,0,0,1.37-.38,1.16,1.16,0,0,0,.54-1,1.05,1.05,0,0,0-.39-.84A3,3,0,0,0,69,48.86l-1.14-.28A3.61,3.61,0,0,1,66,47.71a2,2,0,0,1-.58-1.5,2.27,2.27,0,0,1,.9-1.86,3.6,3.6,0,0,1,2.31-.71,3.52,3.52,0,0,1,2.27.71,2.35,2.35,0,0,1,.91,1.86H70.52a1.41,1.41,0,0,0-.57-1,2.11,2.11,0,0,0-1.3-.38,2.14,2.14,0,0,0-1.29.37,1.14,1.14,0,0,0-.5,1,.91.91,0,0,0,.37.76,3.28,3.28,0,0,0,1.23.51l1,.24a4.12,4.12,0,0,1,2,.9,2,2,0,0,1,.6,1.55,2.35,2.35,0,0,1-.91,2,3.88,3.88,0,0,1-2.49.73A3.82,3.82,0,0,1,66.2,52,2.43,2.43,0,0,1,65.23,50.15Z"/><path class="cls-1" d="M82.6,52.6l-.81-2.38H78.43l-.8,2.38H76.2l3.19-8.81h1.47l3.19,8.81Zm-2.51-7.35-1.31,3.87h2.66l-1.31-3.87Z"/><path class="cls-1" d="M86.9,52.6H85.57V43.79h1.24l4.57,6.5h.05v-6.5h1.33V52.6H91.52L87,46.11h0Z"/><path class="cls-1" d="M94.93,43.79H98a4,4,0,0,1,3.07,1.15,4.49,4.49,0,0,1,1.11,3.24,4.55,4.55,0,0,1-1.1,3.25A4,4,0,0,1,98,52.6H94.93ZM96.3,45v6.45h1.61a2.77,2.77,0,0,0,2.16-.83,3.49,3.49,0,0,0,.75-2.4,3.41,3.41,0,0,0-.76-2.39A2.72,2.72,0,0,0,97.91,45Z"/><path class="cls-1" d="M112.75,51.42V52.6h-5.6V43.79h5.6V45h-4.23v2.57h4v1.14h-4v2.74Z"/><path class="cls-1" d="M114.16,52.6l2.93-4.42v0l-2.9-4.35h1.63L118,47.2h0l2.19-3.41h1.55l-3,4.4v0l2.93,4.37h-1.6l-2.19-3.36h0l-2.22,3.36Z"/><path class="cls-1" d="M126.62,52.75a3.71,3.71,0,0,1-2.94-1.23,4.83,4.83,0,0,1-1.1-3.33,4.82,4.82,0,0,1,1.1-3.32,3.74,3.74,0,0,1,2.94-1.23,3.86,3.86,0,0,1,2.54.85,3.24,3.24,0,0,1,1.2,2.22H129a2.33,2.33,0,0,0-.84-1.36,2.43,2.43,0,0,0-1.55-.51,2.32,2.32,0,0,0-1.92.91,4.51,4.51,0,0,0,0,4.89,2.31,2.31,0,0,0,1.93.91,2.57,2.57,0,0,0,1.54-.45,2.11,2.11,0,0,0,.84-1.24h1.36A3.36,3.36,0,0,1,129.13,52,4,4,0,0,1,126.62,52.75Z"/><path class="cls-1" d="M139.42,52.6h-1.37V48.7h-4.53v3.9h-1.37V43.79h1.37v3.72h4.53V43.79h1.37Z"/><path class="cls-1" d="M147.33,52.6l-.81-2.38h-3.36l-.81,2.38h-1.42l3.18-8.81h1.48l3.18,8.81Zm-2.51-7.35-1.31,3.87h2.66l-1.31-3.87Z"/><path class="cls-1" d="M151.63,52.6H150.3V43.79h1.24l4.57,6.5h0v-6.5h1.34V52.6h-1.24l-4.57-6.49h-.05Z"/><path class="cls-1" d="M167.26,48.94a3.81,3.81,0,0,1-1,2.8,3.77,3.77,0,0,1-2.79,1,3.82,3.82,0,0,1-3-1.24,4.83,4.83,0,0,1-1.11-3.36,4.7,4.7,0,0,1,1.11-3.29,3.8,3.8,0,0,1,3-1.22,3.93,3.93,0,0,1,2.49.8,3.36,3.36,0,0,1,1.26,2.12h-1.41a2.32,2.32,0,0,0-.86-1.27,2.68,2.68,0,0,0-3.46.42,3.74,3.74,0,0,0-.72,2.43,3.88,3.88,0,0,0,.74,2.5,2.41,2.41,0,0,0,2,.91,2.49,2.49,0,0,0,1.75-.63,2.15,2.15,0,0,0,.69-1.62v-.16h-2.28V48h3.63Z"/><path class="cls-1" d="M174.74,51.42V52.6h-5.6V43.79h5.6V45h-4.23v2.57h4v1.14h-4v2.74Z"/><path class="cls-1" d="M183.5,52.75a3.75,3.75,0,0,1-2.95-1.23,4.87,4.87,0,0,1-1.09-3.33,4.82,4.82,0,0,1,1.1-3.32,3.74,3.74,0,0,1,2.94-1.23,3.86,3.86,0,0,1,2.54.85,3.28,3.28,0,0,1,1.2,2.22h-1.36a2.27,2.27,0,0,0-.83-1.36,2.43,2.43,0,0,0-1.55-.51,2.32,2.32,0,0,0-1.92.91,4.51,4.51,0,0,0,0,4.89,2.31,2.31,0,0,0,1.93.91,2.57,2.57,0,0,0,1.54-.45,2.09,2.09,0,0,0,.83-1.24h1.37A3.36,3.36,0,0,1,186,52,4.05,4.05,0,0,1,183.5,52.75Z"/><path class="cls-1" d="M192.84,43.64a3.88,3.88,0,0,1,3,1.23A4.78,4.78,0,0,1,197,48.2a4.74,4.74,0,0,1-1.11,3.32,4.32,4.32,0,0,1-6,0,4.74,4.74,0,0,1-1.11-3.32,4.78,4.78,0,0,1,1.11-3.33A3.88,3.88,0,0,1,192.84,43.64Zm0,1.2a2.41,2.41,0,0,0-2,.91,4.41,4.41,0,0,0,0,4.89,2.65,2.65,0,0,0,4,0,4.41,4.41,0,0,0,0-4.89A2.41,2.41,0,0,0,192.84,44.84Z"/><path class="cls-1" d="M207.74,52.6h-1.25V46.11h0l-2.66,6.42h-1l-2.67-6.42h0V52.6h-1.25V43.79h1.59l2.85,7h.05l2.84-7h1.59Z"/><path class="cls-1" d="M218.84,52.6h-1.26V46.11h0l-2.66,6.42h-1l-2.66-6.42h-.05V52.6h-1.24V43.79h1.58l2.85,7h.05l2.85-7h1.59Z"/><path class="cls-1" d="M222.38,52.6H221V43.79h1.37Z"/><path class="cls-1" d="M224.16,50.15h1.35a1.44,1.44,0,0,0,.66,1.05,2.55,2.55,0,0,0,1.45.39,2.26,2.26,0,0,0,1.37-.38,1.16,1.16,0,0,0,.54-1,1,1,0,0,0-.38-.84,3.08,3.08,0,0,0-1.24-.53l-1.14-.28a3.7,3.7,0,0,1-1.8-.87,2.06,2.06,0,0,1-.57-1.5,2.26,2.26,0,0,1,.89-1.86,3.64,3.64,0,0,1,2.31-.71,3.55,3.55,0,0,1,2.28.71,2.39,2.39,0,0,1,.91,1.86h-1.33a1.44,1.44,0,0,0-.57-1,2.13,2.13,0,0,0-1.3-.38,2.2,2.2,0,0,0-1.3.37,1.13,1.13,0,0,0-.49,1,.91.91,0,0,0,.37.76,3.28,3.28,0,0,0,1.23.51l1,.24a4.21,4.21,0,0,1,2,.9,2,2,0,0,1,.6,1.55,2.35,2.35,0,0,1-.92,2,3.87,3.87,0,0,1-2.49.73,3.79,3.79,0,0,1-2.38-.71A2.47,2.47,0,0,1,224.16,50.15Z"/><path class="cls-1" d="M232.31,50.15h1.35a1.44,1.44,0,0,0,.66,1.05,2.55,2.55,0,0,0,1.45.39,2.26,2.26,0,0,0,1.37-.38,1.16,1.16,0,0,0,.54-1,1,1,0,0,0-.38-.84,3.08,3.08,0,0,0-1.24-.53l-1.14-.28a3.7,3.7,0,0,1-1.8-.87,2.06,2.06,0,0,1-.57-1.5,2.26,2.26,0,0,1,.89-1.86,3.64,3.64,0,0,1,2.31-.71,3.55,3.55,0,0,1,2.28.71,2.39,2.39,0,0,1,.91,1.86H237.6a1.4,1.4,0,0,0-.56-1,2.13,2.13,0,0,0-1.3-.38,2.2,2.2,0,0,0-1.3.37,1.13,1.13,0,0,0-.49,1,.91.91,0,0,0,.37.76,3.28,3.28,0,0,0,1.23.51l1,.24a4.21,4.21,0,0,1,2,.9,2,2,0,0,1,.6,1.55,2.35,2.35,0,0,1-.92,2,3.87,3.87,0,0,1-2.49.73,3.79,3.79,0,0,1-2.38-.71A2.47,2.47,0,0,1,232.31,50.15Z"/><path class="cls-1" d="M242.22,52.6h-1.36V43.79h1.36Z"/><path class="cls-1" d="M248.21,43.64a3.88,3.88,0,0,1,3,1.23,4.78,4.78,0,0,1,1.11,3.33,4.74,4.74,0,0,1-1.11,3.32,4.32,4.32,0,0,1-6,0,4.74,4.74,0,0,1-1.11-3.32,4.78,4.78,0,0,1,1.11-3.33A3.87,3.87,0,0,1,248.21,43.64Zm0,1.2a2.41,2.41,0,0,0-2,.91,4.41,4.41,0,0,0,0,4.89,2.65,2.65,0,0,0,4,0,4.41,4.41,0,0,0,0-4.89A2.41,2.41,0,0,0,248.21,44.84Z"/><path class="cls-1" d="M255.52,52.6h-1.33V43.79h1.24l4.57,6.5h.05v-6.5h1.33V52.6h-1.23l-4.57-6.49h-.06Z"/><path class="cls-1" d="M264.33,54.42h-1.05l.55-3.23h1.33Z"/><path class="cls-1" d="M271.16,52.6h-1.33V43.79h1.24l4.57,6.5h.05v-6.5H277V52.6h-1.24l-4.57-6.49h0Z"/><path class="cls-1" d="M280.56,52.6h-1.37V43.79h1.37Z"/><path class="cls-1" d="M290.33,48.94a3.93,3.93,0,0,1-6.8,2.57,4.83,4.83,0,0,1-1.11-3.36,4.74,4.74,0,0,1,1.1-3.29,3.81,3.81,0,0,1,3-1.22,4,4,0,0,1,2.5.8,3.3,3.3,0,0,1,1.25,2.12h-1.4a2.37,2.37,0,0,0-.86-1.27,2.47,2.47,0,0,0-1.48-.45,2.4,2.4,0,0,0-2,.87,3.74,3.74,0,0,0-.72,2.43,3.88,3.88,0,0,0,.73,2.5,2.41,2.41,0,0,0,2,.91,2.47,2.47,0,0,0,1.75-.63A2.15,2.15,0,0,0,289,49.3v-.16H286.7V48h3.63Z"/><path class="cls-1" d="M297.81,51.42V52.6h-5.59V43.79h5.59V45h-4.22v2.57h4v1.14h-4v2.74Z"/><path class="cls-1" d="M301.14,49.21V52.6h-1.37V43.79h3.41a3,3,0,0,1,2.15.73,2.53,2.53,0,0,1,.8,2,2.69,2.69,0,0,1-.46,1.57,2.39,2.39,0,0,1-1.25,1l2,3.6h-1.57L303,49.21Zm0-4.28v3.18h1.92a1.67,1.67,0,0,0,1.22-.42,1.55,1.55,0,0,0,.44-1.17,1.5,1.5,0,0,0-.45-1.16,1.79,1.79,0,0,0-1.25-.43Z"/><path class="cls-1" d="M309.37,52.6H308V43.79h1.37Z"/><path class="cls-1" d="M317.28,52.6l-.8-2.38h-3.36l-.81,2.38h-1.42l3.18-8.81h1.48l3.18,8.81Zm-2.5-7.35-1.31,3.87h2.66l-1.31-3.87Z"/></g></g></svg>